<?xml version="1.0" encoding="utf-8"?>
<!-- Generator: Adobe Illustrator 25.0.1, SVG Export Plug-In . SVG Version: 6.00 Build 0)  -->
<svg version="1.1" id="Layer_1" xmlns="http://www.w3.org/2000/svg" xmlns:xlink="http://www.w3.org/1999/xlink" x="0px" y="0px"
	 viewBox="0 0 49 44" style="enable-background:new 0 0 49 44;" xml:space="preserve">
<style type="text/css">
	.st0{fill:none;stroke:#FFFFFF;stroke-width:2;stroke-linecap:round;stroke-linejoin:round;}
</style>
<desc>Created with Sketch.</desc>
<g id="Tour---Kingdom-of-Volcanoes-and-Glaciers" transform="translate(-919.000000, -2490.000000)">
	<g id="Tour-Overview" transform="translate(270.000000, 2243.000000)">
		<g id="Group-27">
			<g id="Tour-Details">
				<g id="Group-9">
					<g id="Group-8" transform="translate(0.000000, 85.000000)">
						<g id="Group-244" transform="translate(650.000000, 163.000000)">
							<path id="Stroke-226" class="st0" d="M10,11.5l-1,4C8.7,16.8,9.6,18,10.9,18h7.4c1.1,0,2-0.9,2-2v-4c0-1.1-0.9-2-2-2h-6.4
								C11,10,10.2,10.6,10,11.5L10,11.5z"/>
							<path id="Stroke-228" class="st0" d="M36.7,11.5l1,4c0.3,1.3-0.6,2.5-1.9,2.5h-7.4c-1.1,0-2-0.9-2-2v-4c0-1.1,0.9-2,2-2h6.4
								C35.7,10,36.5,10.6,36.7,11.5L36.7,11.5z"/>
							<path id="Stroke-230" class="st0" d="M8.4,16h-4V4c0-2.2,1.8-4,4-4h30c2.2,0,4,1.8,4,4v12h-4"/>
							<path id="Stroke-232" class="st0" d="M26.4,16h-6"/>
							<path id="Stroke-234" class="st0" d="M44.4,28h-42c-1.1,0-2,0.9-2,2v8h46v-8C46.4,28.9,45.5,28,44.4,28L44.4,28z"/>
							<polyline id="Stroke-236" class="st0" points="0.4,38 0.4,42 4.4,42 4.4,38 							"/>
							<polyline id="Stroke-238" class="st0" points="46.4,38 46.4,42 42.4,42 42.4,38 							"/>
							<path id="Stroke-240" class="st0" d="M4.4,16l-4,13"/>
							<path id="Stroke-242" class="st0" d="M42.4,16l4,13"/>
						</g>
					</g>
				</g>
			</g>
		</g>
	</g>
</g>
</svg>
