<?xml version="1.0" encoding="utf-8"?>
<!-- Generator: Adobe Illustrator 25.0.1, SVG Export Plug-In . SVG Version: 6.00 Build 0)  -->
<svg version="1.1" id="Layer_1" xmlns="http://www.w3.org/2000/svg" xmlns:xlink="http://www.w3.org/1999/xlink" x="0px" y="0px"
	 viewBox="0 0 48 52" style="enable-background:new 0 0 48 52;" xml:space="preserve">
<style type="text/css">
	.st0{fill:none;stroke:#FFFFFF;stroke-width:2;stroke-linecap:round;stroke-linejoin:round;}
	.st1{fill:none;stroke:#FFFFFF;stroke-width:2;stroke-linecap:round;stroke-linejoin:round;stroke-dasharray:4,5;}
</style>
<desc>Created with Sketch.</desc>
<g id="Main">
	<g id="Tour---Kingdom-of-Volcanoes-and-Glaciers" transform="translate(-598.000000, -2707.000000)">
		<g id="icon_x2F_ascent" transform="translate(599.000000, 2708.000000)">
			<g>
				<polyline id="Stroke-145" class="st0" points="0,49 23,1 45.9,49 				"/>
				<path id="Stroke-208" class="st1" d="M26.1,50c15.6-17.9-18.7-19.4-3.6-36.7c4.1-4.7,0.4-9.1,0.4-9.1"/>
				<polyline id="Stroke-190" class="st0" points="11.5,50 14.6,41.7 17.8,50 				"/>
				<path id="Stroke-192" class="st0" d="M13.6,47.9h2.1"/>
				<path id="Stroke-197" class="st0" d="M32.3,3.1h2.6c0.9,0,1.6,0.7,1.6,1.6s-0.7,1.6-1.6,1.6h-2.6V0h2.6c0.9,0,1.6,0.7,1.6,1.6
					s-0.7,1.6-1.6,1.6H32.3"/>
			</g>
		</g>
	</g>
</g>
</svg>
