<?xml version="1.0" encoding="utf-8"?>
<!-- Generator: Adobe Illustrator 25.0.1, SVG Export Plug-In . SVG Version: 6.00 Build 0)  -->
<svg version="1.1" id="Layer_1" xmlns="http://www.w3.org/2000/svg" xmlns:xlink="http://www.w3.org/1999/xlink" x="0px" y="0px"
	 viewBox="0 0 42 42" style="enable-background:new 0 0 42 42;" xml:space="preserve">
<style type="text/css">
	.st0{fill:none;stroke:#FFFFFF;stroke-width:2;}
	.st1{fill-rule:evenodd;clip-rule:evenodd;fill:#D8D8D8;}
	.st2{fill:none;stroke:#FFFFFF;}
</style>
<g>
	<g>
		<path class="st0" d="M5.8,6.5h30.8c1.5,0,2.7,1.2,2.7,2.7v27.2c0,1.5-1.2,2.7-2.7,2.7H5.8c-1.5,0-2.7-1.2-2.7-2.7V9.2
			C3,7.7,4.3,6.5,5.8,6.5z"/>
		<path class="st0" d="M11.2,2.9h0.9c1,0,1.8,0.8,1.8,1.8v2.7c0,1-0.8,1.8-1.8,1.8h-0.9c-1,0-1.8-0.8-1.8-1.8V4.7
			C9.4,3.7,10.2,2.9,11.2,2.9z"/>
		<path class="st0" d="M30.2,2.9h0.9c1,0,1.8,0.8,1.8,1.8v2.7c0,1-0.8,1.8-1.8,1.8h-0.9c-1,0-1.8-0.8-1.8-1.8V4.7
			C28.4,3.7,29.2,2.9,30.2,2.9z"/>
		<g>
			<g>
				<path id="c" class="st1" d="M3,13.8h36.2v1.8H3V13.8z"/>
			</g>
			<path class="st2" d="M3.5,14.2h35.3v0.9H3.5V14.2z"/>
		</g>
	</g>
</g>
</svg>
