<?xml version="1.0" encoding="utf-8"?>
<!-- Generator: Adobe Illustrator 25.0.1, SVG Export Plug-In . SVG Version: 6.00 Build 0)  -->
<svg version="1.1" id="Layer_1" xmlns="http://www.w3.org/2000/svg" xmlns:xlink="http://www.w3.org/1999/xlink" x="0px" y="0px"
	 viewBox="0 0 46 42" style="enable-background:new 0 0 46 42;" xml:space="preserve">
<style type="text/css">
	.st0{fill-rule:evenodd;clip-rule:evenodd;fill:#151727;}
	.st1{fill-rule:evenodd;clip-rule:evenodd;fill:#FFFFFF;}
	.st2{fill:none;stroke:#FFFFFF;stroke-width:2;}
	.st3{fill:none;stroke:#DD0505;stroke-width:2;stroke-linecap:round;stroke-linejoin:round;}
</style>
<desc>Created with Sketch.</desc>
<g id="Symbols">
	<g id="Difficulty---Moderate">
		<polygon id="Rectangle" class="st0" points="1.5,29.5 35,13.5 35,41.5 1.5,41.5 		"/>
		<rect id="Rectangle-10" x="38" y="10.5" class="st1" width="2" height="32"/>
		<path id="Rectangle-19" class="st2" d="M2.2,28.8c-0.7,0.3-1.2,1-1.2,1.8v8.9c0,1.1,0.9,2,2,2h40c1.1,0,2-0.9,2-2V13.4
			c0-0.3-0.1-0.5-0.2-0.8c-0.4-1-1.6-1.5-2.6-1L2.2,28.8z"/>
		<path id="Rectangle-11" class="st3" d="M41.4,1.5L35,7.9l-6.4-6.4L41.4,1.5z"/>
		<rect id="Rectangle-10-Copy-4" x="6" y="22.5" class="st1" width="2" height="20"/>
		<rect id="Rectangle-10-Copy-3" x="14" y="19.5" class="st1" width="2" height="23"/>
		<rect id="Rectangle-10-Copy" x="30" y="13.5" class="st1" width="2" height="29"/>
		<rect id="Rectangle-10-Copy-2" x="22" y="16.5" class="st1" width="2" height="26"/>
	</g>
</g>
</svg>
