<?xml version="1.0" encoding="utf-8"?>
<!-- Generator: Adobe Illustrator 25.0.1, SVG Export Plug-In . SVG Version: 6.00 Build 0)  -->
<svg version="1.1" id="Layer_1" xmlns="http://www.w3.org/2000/svg" xmlns:xlink="http://www.w3.org/1999/xlink" x="0px" y="0px"
	 viewBox="0 0 46 46" style="enable-background:new 0 0 46 46;" xml:space="preserve">
<style type="text/css">
	.st0{fill:none;stroke:#FFFFFF;stroke-width:2;stroke-linecap:round;stroke-linejoin:round;}
</style>
<desc>Created with Sketch.</desc>
<g id="Tour---Kingdom-of-Volcanoes-and-Glaciers" transform="translate(-269.000000, -2379.000000)">
	<g id="Tour-Overview" transform="translate(270.000000, 2328.000000)">
		<g id="Group-27">
			<g id="Tour-Details">
				<g id="Group-9">
					<g id="Group-8">
						<g id="Group-319" transform="translate(0.000000, 52.000000)">
							<path id="Stroke-315" class="st0" d="M22,44v-4"/>
							<path id="Stroke-317" class="st0" d="M22,0v22H0c0,12.2,9.9,22,22,22s22-9.8,22-22S34.2,0,22,0L22,0z"/>
							<path id="Stroke-305" class="st0" d="M41.1,33l-3.5-2"/>
							<path id="Stroke-306" class="st0" d="M2.9,33l3.5-2"/>
							<path id="Stroke-308" class="st0" d="M41.1,11l-3.5,2"/>
							<path id="Stroke-309" class="st0" d="M11,41.1l2-3.5"/>
							<path id="Stroke-310" class="st0" d="M33,2.9l-2,3.5"/>
							<path id="Stroke-311" class="st0" d="M22,0v4"/>
							<path id="Stroke-312" class="st0" d="M0,22h4"/>
							<path id="Stroke-314" class="st0" d="M44,22h-4"/>
							<path id="Stroke-301" class="st0" d="M11,2.9l2,3.5"/>
							<path id="Stroke-302" class="st0" d="M33,41.1l-2-3.5"/>
							<path id="Stroke-303" class="st0" d="M2.9,11l3.5,2"/>
						</g>
					</g>
				</g>
			</g>
		</g>
	</g>
</g>
</svg>
