<?xml version="1.0" encoding="utf-8"?>
<!-- Generator: Adobe Illustrator 25.0.1, SVG Export Plug-In . SVG Version: 6.00 Build 0)  -->
<svg version="1.1" id="Layer_1" xmlns="http://www.w3.org/2000/svg" xmlns:xlink="http://www.w3.org/1999/xlink" x="0px" y="0px"
	 viewBox="0 0 48 49" style="enable-background:new 0 0 48 49;" xml:space="preserve">
<style type="text/css">
	.st0{fill:none;stroke:#FFFFFF;stroke-width:2;stroke-linecap:round;stroke-linejoin:round;}
</style>
<desc>Created with Sketch.</desc>
<g id="Tour---Kingdom-of-Volcanoes-and-Glaciers" transform="translate(-269.000000, -2486.000000)">
	<g id="Tour-Overview" transform="translate(270.000000, 2328.000000)">
		<g id="Group-27">
			<g id="Tour-Details">
				<g id="Group-9">
					<g id="Group-8">
						<g id="Group-377" transform="translate(0.000000, 159.000000)">
							<polygon id="Stroke-417" class="st0" points="16,40.5 0,44.5 0,10.5 16,6.5 							"/>
							<polygon id="Stroke-418" class="st0" points="30,12.5 16,6.5 16,40.5 30,46.5 							"/>
							<polyline id="Stroke-419" class="st0" points="30,12.5 30,46.5 46,42.5 46,10.5 							"/>
							<path id="Stroke-420" class="st0" d="M38,0.5c-3.3,0-6,2.7-6,6s6,14,6,14s6-10.7,6-14S41.3,0.5,38,0.5L38,0.5z"/>
							<path id="Stroke-422" class="st0" d="M40,6.5c0,1.1-0.9,2-2,2s-2-0.9-2-2s0.9-2,2-2S40,5.4,40,6.5L40,6.5z"/>
						</g>
					</g>
				</g>
			</g>
		</g>
	</g>
</g>
</svg>
