<?xml version="1.0" encoding="utf-8"?>
<!-- Generator: Adobe Illustrator 25.0.1, SVG Export Plug-In . SVG Version: 6.00 Build 0)  -->
<svg version="1.1" id="Layer_1" xmlns="http://www.w3.org/2000/svg" xmlns:xlink="http://www.w3.org/1999/xlink" x="0px" y="0px"
	 viewBox="0 0 65 11.2" style="enable-background:new 0 0 65 11.2;" xml:space="preserve">
<style type="text/css">
	.st0{fill:#231F20;}
</style>
<g>
	<polygon class="st0" points="3.4,8.5 2.7,7.7 7.7,2.9 12.3,7.5 11.6,8.2 7.7,4.3 	"/>
</g>
<g>
	<polygon class="st0" points="11.6,8.3 10.9,7.6 15.9,2.7 20.5,7.4 19.8,8.1 15.9,4.1 	"/>
</g>
<g>
	<polygon class="st0" points="20.1,8.4 19.4,7.7 24.4,2.8 29,7.5 28.3,8.2 24.4,4.2 	"/>
</g>
<g>
	<polygon class="st0" points="28.3,8.3 27.6,7.6 32.6,2.7 37.2,7.4 36.5,8.1 32.6,4.1 	"/>
</g>
<g>
	<polygon class="st0" points="36.6,8.2 35.9,7.5 40.9,2.6 45.5,7.3 44.7,8 40.9,4 	"/>
</g>
<g>
	<polygon class="st0" points="44.8,8.1 44.1,7.3 49.1,2.5 53.7,7.2 52.9,7.8 49.1,3.9 	"/>
</g>
<g>
	<polygon class="st0" points="53.2,8.2 52.5,7.4 57.5,2.6 62.1,7.3 61.4,8 57.5,4 	"/>
</g>
</svg>
