<svg xmlns="http://www.w3.org/2000/svg" width="1004.148" height="701.258" viewBox="0 0 1004.148 701.258">
  <g id="back" transform="translate(-30.837 49.493) rotate(-4.012)">
    <path id="Path_66" data-name="Path 66" d="M71.647,238.084c15.435,0,29.422,0,41.481-19.293,12.058-18.811,11.093-27.975,10.611-35.208-.965-11.093.482-17.364,17.846-27.975l5.306-3.376c18.811-12.058,37.139-23.152,55.95-18.332,13.506,3.376,25.564,13.988,36.657,32.8,21.222,34.728,63.185,83.926,86.82,85.855a10.9,10.9,0,0,0,10.129-3.855l.482-.965s-4.341-12.058-5.306-17.846c-6.271-60.774-23.634-88.266-70.42-104.666C214.416,109.3,155.572,51.906,129.044,38.885c-22.187-11.093-63.667-49.2-73.314-17.846C50.906,35.988,12.32,71.2,12.32,113.161c0,25.564,2.894,51.609,4.824,77.173C19.07,213,32.1,225.545,46.568,240.979l2.894-.965C57.659,238.084,64.894,238.084,71.647,238.084Z" transform="translate(467.017 112.13)" fill="none" stroke="#707070" stroke-width="2"/>
    <path id="Path_67" data-name="Path 67" d="M45.553,273.088c3.376.965,4.824,0,5.306-.482,3.855-2.411,5.306-11.576,6.753-20.258,2.411-13.988,5.306-29.9,17.364-38.1,7.717-5.306,17.846-6.271,30.386-3.855,7.717,1.447,14.47,2.894,20.74,4.341,42.927,9.647,55.95,12.54,72.349-21.222,15.435-31.353,40.519-29.9,64.15-24.117a173.467,173.467,0,0,1-18.332-55.95c-4.824-30.869.482-67.527-11.093-96.466-9.643-25.082-85.852,44.852-103.7,53.051-21.222,9.647-14.953,27.489-53.056,39.069-37.622,11.576-57.88,39.069-62.705,83.925-.482,5.788-3.855,9.647-8.2,13.021L6,207.489C18.542,244.631,33.977,270.194,45.553,273.088Z" transform="translate(145.833 237.26)" fill="none" stroke="#707070" stroke-width="2"/>
    <path id="Path_68" data-name="Path 68" d="M507.853,69.5c-24.117-14.952-51.609-24.117-78.62-33.281C375.213,17.886,319.745-2.851,261.865,11.136c-32.8,8.2-62.221,24.6-91.642,41.481-44.857,24.117-91.158,48.233-134.571,75.726C23.594,136.061,11.535,145.225,8.159,159.7c-4.821,18.809,8.2,39.068,27.01,41.961,23.634,3.376,38.586-15.435,53.056-30.87s32.316-27.493,53.056-31.353c7.235-1.447,14.952-1.929,22.187,0,5.306.965,14.952,4.824,16.4,10.611a5.325,5.325,0,0,1,0,3.855c0,20.74-2.894,41-3.376,61.738-.482,21.7-.482,43.41,1.929,65.114,5.788,49.68,22.67,100.324,55.468,139.394,15.435,18.332,27.01,38.586,37.139,63.667-.482.482-.965.482-1.447.965-8.2,1.929,23.152,86.82,72.349,121.547,7.235,4.824,13.021,7.717,18.332,8.682.482,0,.965.482,1.447.482,13.5,4.824,31.353,11.093,41.481,13.021,11.576,2.411,13.988-.482-7.717-13.988-.965-.482-1.447-.965-2.411-1.447q-7.958-5.064-14.47-10.129a24.21,24.21,0,0,0,.965-5.788c1.447-13.988-4.341-31.834-11.093-33.763-11.576,0-8.2-7.235-14.952-20.74s-14.953-8.2-15.917-21.223-17.846-17.846-14.952-29.9-9.166-25.564-5.306-38.586,2.894-22.187-4.823-17.846c0,0-4.824,6.753-11.093,14.952-15.917-28.94-37.139-54.021-49.68-84.408-14.47-33.763-17.846-69.938-17.846-106.595,0-24.117,1.447-47.75,3.376-71.871,1.929-21.222,2.411-44.373,13.988-63.185.965-1.929,1.929-5.788,4.341-6.271.965,0,1.447-.482,2.411-.482a57.715,57.715,0,0,1,6.753-1.447l6.753-.965a22.864,22.864,0,0,1,6.271,0s-1.929-2.411-3.855-5.306a61.056,61.056,0,0,1-3.376-5.788,34.878,34.878,0,0,1-1.929-3.376c1.929-2.411,3.376-4.824,5.306-7.717,2.411.482,4.341.965,4.341.965a42.115,42.115,0,0,1,6.271,2.411l5.788,2.894s-.482-2.894-.965-6.271v-8.2a54.543,54.543,0,0,1,.482-6.753,6.117,6.117,0,0,1,.482-2.894c.965-.965,1.929-1.447,2.894-2.411.965.482,1.929,1.447,3.376,2.411a39.617,39.617,0,0,1,5.306,4.341s2.411,2.411,4.824,4.341c2.411,2.411,4.341,4.824,4.341,4.824a41.832,41.832,0,0,1,1.447-6.271c.965-3.376,1.929-6.271,1.929-6.271a42.111,42.111,0,0,1,2.411-6.271c.965-2.411,1.929-4.341,2.411-5.306h.482A55.411,55.411,0,0,1,323.607,69c1.929,2.894,3.855,5.306,3.855,5.306l3.855,5.788a61.056,61.056,0,0,1,3.376,5.788,25.1,25.1,0,0,1,2.894-6.753,62.509,62.509,0,0,1,3.376-5.788,62.5,62.5,0,0,0,3.376-5.788c.482-.965.965-1.447,1.447-2.411,1.447.482,2.894.482,4.824.965.482.482.482.965.965,1.447,1.447,2.894,2.894,6.271,2.894,6.271s.965,2.894,2.411,6.271a42.111,42.111,0,0,1,2.411,6.271s1.929-2.894,3.855-5.306c1.929-2.894,3.855-5.306,3.855-5.306l2.894-3.855c2.894.965,5.788,1.447,8.2,2.411a28.686,28.686,0,0,1,1.447,3.376,42.116,42.116,0,0,0,2.411,6.271c.965,3.376,1.929,6.271,1.929,6.271s1.929-2.411,4.341-5.306c2.411-2.411,4.341-4.824,4.341-4.824l1.447-1.447c3.855.965,7.717,1.929,11.093,2.894l.482,1.447,3.855,13.021,9.166-9.647.965-.965c3.855.965,7.235,1.929,11.093,2.894l.482,1.447,3.376,13.021,9.166-9.647,1.447-1.447c3.855.965,7.717,1.929,11.093,2.894l.482,1.929,3.377,13.021,9.166-9.647,1.447-1.447c3.376.965,6.753,1.929,10.611,2.894l.482,1.929L487.1,115.3l9.658-9.628,1.447-1.447c3.855.965,7.235,1.929,11.093,2.894l.482,1.929s.965,3.376,1.929,6.271c.482.965,0,1.447,0,2.411s.482,1.447.482,1.929a2.819,2.819,0,0,0,.482,1.929l10.129-8.682,1.929-1.929c3.376.965,6.271,1.929,9.647,2.894l.482,3.376,2.416,13.024L547.4,121.59l2.411-1.447c3.855,1.447,7.717,2.411,11.576,3.855C545.957,103.262,530.04,83.487,507.853,69.5ZM42.887,182.364a14.952,14.952,0,1,1,14.952-14.952A14.952,14.952,0,0,1,42.887,182.364Z" transform="translate(222.778 0)" fill="none" stroke="#707070" stroke-width="2"/>
    <path id="Path_69" data-name="Path 69" d="M510.688,174.335c-6.271-17.846-13.021-35.692-20.74-53.056C475,87.515,455.7,59.54,430.622,32.531c-4.341-4.341-11.093-12.54-11.093-12.54l-8.682-.485-1.929-.482c-26.042-6.753-39.551-6.271-49.68,13.988C337.05,78.833,311,73.046,268.077,63.4c-6.271-1.447-13.021-2.894-20.74-4.341-7.235-2.411-13.021-1.929-16.882.482-6.271,4.341-8.682,16.4-10.129,27.01-2.411,12.54-4.341,25.081-13.988,31.353a20.719,20.719,0,0,1-12.058,3.376,29.667,29.667,0,0,1-6.271-.482c-23.152-5.306-40.034-42.927-50.645-74.278a111.274,111.274,0,0,0-9.166,6.753c-12.057,10.609-25.08,19.774-38.59,28.456-5.788,3.855-11.576,7.235-17.846,10.611C29.8,115.008,10.029,173.852,3.277,217.744c-.965,4.824-1.447,10.129.482,14.47,2.411,6.753,9.647,11.093,17.364,12.54,13.988,1.929,29.422-2.894,42.445-5.788C87.2,233.661,111.8,224.5,136.4,224.5c32.8,0,64.632,10.129,97.431,12.058,35.208,1.929,70.42-.965,105.63-.482,25.564.482,51.127,1.447,76.208,3.376,23.634,2.411,48.716,9.166,72.832,6.753,14.953-1.447,36.175-9.647,40.519-26.046C532.393,203.757,515.993,188.8,510.688,174.335Z" transform="translate(0 405.469)" fill="none" stroke="#707070" stroke-width="2"/>
    <path id="Path_70" data-name="Path 70" d="M462.812,337.943C452.2,303.7,439.66,268.005,419.4,237.619c-22.67-35.208-51.609-57.88-89.713-73.8C318.6,159,316.668,151.282,310.4,140.671c-2.894-4.824-5.306-9.647-7.717-14.47-.482-.482-.482-.965-.965-1.447a28.664,28.664,0,0,1-18.332,6.753h-2.894c-37.137-2.894-85.852-70.42-99.839-94.055-8.682-14.47-17.364-22.67-26.042-25.081-12.541-2.894-27.493,6.271-43.41,16.4l-5.306,3.376c-10.615,6.271-10.615,7.235-10.133,12.541.482,8.2,1.447,22.187-13.021,45.339-16.882,26.528-39.068,27.01-55.468,27.01-4.824,0-9.647,0-13.988.965,6.271,13.021,16.882,34.246,16.882,34.246,3.855,7.717,4.341,23.634,6.753,32.8,7.235,31.834,16.882,55.95,41,78.62,17.364,16.4,28.94,30.87,35.692,54.021,5.306,18.811,11.093,42.445,28.457,54.5,15.435,10.129,29.9-.965,45.821,3.376,4.824,1.447,8.682,4.341,13.021,7.235,33.763,22.67,76.208,19.293,114.795,18.332,42.927-.965,85.373-1.447,128.3-2.411,8.682,0,17.846-.482,25.564-4.824C489.822,381.355,467.636,354.342,462.812,337.943Z" transform="translate(512.36 249.578)" fill="none" stroke="#707070" stroke-width="2"/>
  </g>
</svg>
