<?xml version="1.0" encoding="utf-8"?>
<!-- Generator: Adobe Illustrator 24.0.1, SVG Export Plug-In . SVG Version: 6.00 Build 0)  -->
<svg version="1.1" id="Layer_1" xmlns="http://www.w3.org/2000/svg" xmlns:xlink="http://www.w3.org/1999/xlink" x="0px" y="0px"
	 viewBox="0 0 39.88 34.41" style="enable-background:new 0 0 39.88 34.41;" xml:space="preserve">
<style type="text/css">
	.st0{fill:#BBC0E2;}
	.st1{fill:#0080C6;}
</style>
<g>
	<path class="st0" d="M21.6,19.36c0.62,0,1.2-0.01,1.68-0.77c0.48-0.76,0.46-1.13,0.43-1.43c-0.03-0.45,0.03-0.7,0.73-1.13
		l0.22-0.13c0.77-0.48,1.5-0.93,2.28-0.75c0.54,0.13,1.03,0.56,1.49,1.32c0.85,1.41,2.55,3.4,3.52,3.48
		c0.17,0.01,0.31-0.04,0.41-0.16l0.03-0.03c0,0-0.19-0.49-0.21-0.73c-0.25-2.46-0.95-3.58-2.85-4.23c-1.89-0.65-4.28-2.97-5.35-3.5
		c-0.9-0.45-2.58-1.99-2.98-0.72c-0.19,0.61-1.75,2.04-1.77,3.72c-0.01,1.04,0.12,2.09,0.2,3.14c0.07,0.93,0.6,1.42,1.2,2.05
		l0.11-0.03C21.02,19.36,21.31,19.36,21.6,19.36z"/>
	<path class="st0" d="M7.53,25.85c0.14,0.03,0.19,0,0.21-0.02c0.15-0.1,0.21-0.47,0.28-0.83c0.1-0.57,0.21-1.21,0.71-1.55
		c0.31-0.21,0.72-0.26,1.24-0.15c0.31,0.06,0.59,0.13,0.84,0.18c1.74,0.39,2.26,0.51,2.93-0.86c0.62-1.27,1.64-1.21,2.6-0.98
		c-0.37-0.7-0.62-1.47-0.75-2.26c-0.2-1.24,0.01-2.73-0.44-3.92c-0.39-1.01-3.47,1.82-4.19,2.14c-0.86,0.39-0.61,1.11-2.14,1.59
		c-1.53,0.48-2.35,1.59-2.55,3.4c-0.03,0.23-0.15,0.39-0.33,0.53l0.03,0.06C6.43,24.7,7.06,25.74,7.53,25.85z"/>
	<path class="st1" d="M29.37,8c-0.98-0.62-2.1-0.98-3.18-1.35c-2.2-0.75-4.44-1.59-6.78-1.02c-1.33,0.32-2.53,1-3.71,1.68
		c-1.83,0.98-3.7,1.94-5.45,3.06c-0.49,0.31-0.97,0.68-1.12,1.27c-0.19,0.76,0.34,1.59,1.1,1.7c0.96,0.14,1.57-0.63,2.15-1.25
		c0.57-0.61,1.3-1.11,2.14-1.26c0.3-0.05,0.61-0.07,0.9,0c0.21,0.05,0.6,0.19,0.67,0.42c0.02,0.05,0.01,0.11,0.01,0.16
		c0,0.83-0.12,1.67-0.14,2.5c-0.03,0.88-0.02,1.77,0.08,2.65c0.23,2,0.92,4.07,2.25,5.64c0.63,0.75,1.08,1.56,1.5,2.58
		c-0.02,0.02-0.05,0.03-0.07,0.03c-0.34,0.08,0.93,3.51,2.94,4.92c0.29,0.21,0.53,0.31,0.73,0.35c0.02,0.01,0.03,0.01,0.05,0.02
		c0.55,0.2,1.27,0.44,1.69,0.53c0.47,0.09,0.57-0.01-0.32-0.57c-0.03-0.02-0.06-0.04-0.09-0.06c-0.22-0.14-0.41-0.28-0.59-0.42
		c0.02-0.07,0.03-0.15,0.04-0.23c0.05-0.58-0.17-1.29-0.45-1.37c-0.46-0.01-0.33-0.3-0.61-0.84c-0.28-0.54-0.6-0.34-0.65-0.87
		c-0.04-0.53-0.72-0.72-0.61-1.22c0.11-0.5-0.37-1.04-0.21-1.57c0.16-0.52,0.12-0.89-0.2-0.72c0,0-0.19,0.26-0.44,0.6
		c-0.64-1.16-1.5-2.19-2.02-3.42c-0.59-1.38-0.72-2.84-0.72-4.32c0-0.97,0.05-1.94,0.14-2.91c0.08-0.87,0.1-1.8,0.57-2.56
		c0.04-0.07,0.07-0.23,0.17-0.26c0.03-0.01,0.06-0.02,0.09-0.03c0.14-0.04,0.27-0.06,0.27-0.06s0.14-0.02,0.27-0.04
		c0.13-0.01,0.26-0.01,0.26-0.01s-0.08-0.1-0.15-0.21c-0.07-0.11-0.14-0.23-0.14-0.23s-0.03-0.06-0.07-0.15
		c0.07-0.1,0.14-0.2,0.22-0.3c0.1,0.02,0.18,0.04,0.18,0.04S20.22,8.95,20.34,9c0.12,0.05,0.24,0.11,0.24,0.11s-0.03-0.13-0.04-0.26
		c-0.02-0.13-0.01-0.27-0.01-0.27s0-0.13,0.01-0.27c0-0.04,0.01-0.08,0.01-0.12c0.04-0.03,0.08-0.06,0.12-0.09
		c0.04,0.03,0.09,0.06,0.13,0.09c0.11,0.08,0.21,0.17,0.21,0.17s0.1,0.09,0.2,0.18c0.1,0.09,0.18,0.19,0.18,0.19
		s0.03-0.13,0.07-0.26c0.04-0.13,0.08-0.26,0.08-0.26s0.04-0.13,0.1-0.26c0.04-0.09,0.08-0.18,0.1-0.22c0,0,0.01,0,0.01,0
		c0.03,0.04,0.09,0.11,0.15,0.19c0.08,0.11,0.16,0.22,0.16,0.22s0.08,0.11,0.15,0.23c0.07,0.11,0.14,0.23,0.14,0.23
		s0.06-0.12,0.12-0.24c0.07-0.12,0.13-0.24,0.13-0.24s0.07-0.12,0.14-0.23c0.02-0.03,0.04-0.06,0.06-0.09
		c0.06,0.01,0.12,0.02,0.19,0.04C23,7.88,23.01,7.9,23.02,7.92c0.06,0.12,0.12,0.24,0.12,0.24s0.06,0.12,0.11,0.25
		c0.05,0.12,0.11,0.25,0.11,0.25s0.08-0.11,0.16-0.22c0.08-0.11,0.16-0.22,0.16-0.22s0.06-0.07,0.12-0.16
		c0.11,0.03,0.23,0.07,0.34,0.1C24.18,8.24,24.2,8.3,24.2,8.3s0.05,0.13,0.09,0.26c0.04,0.13,0.09,0.26,0.09,0.26
		s0.09-0.1,0.18-0.21c0.09-0.1,0.18-0.2,0.18-0.2l0.06-0.06c0.15,0.04,0.3,0.08,0.45,0.12l0.02,0.06l0.15,0.52l0.38-0.39l0.04-0.04
		c0.15,0.04,0.3,0.08,0.45,0.11l0.02,0.06l0.15,0.52l0.38-0.39l0.05-0.05c0.15,0.04,0.3,0.07,0.46,0.11l0.02,0.07l0.15,0.52
		l0.38-0.39l0.06-0.06c0.14,0.04,0.28,0.07,0.42,0.11l0.02,0.08l0.14,0.52l0.38-0.39l0.06-0.06c0.15,0.04,0.29,0.08,0.44,0.12
		l0.02,0.08c0,0,0.03,0.13,0.07,0.26c0.01,0.03,0,0.06,0,0.09c0.01,0.03,0.01,0.06,0.01,0.09c0.01,0.05,0.01,0.08,0.01,0.08
		l0.42-0.35l0.08-0.07c0.13,0.04,0.26,0.08,0.38,0.12l0.02,0.13l0.09,0.54l0.42-0.35l0.11-0.1c0.15,0.05,0.31,0.11,0.46,0.16
		C30.92,9.35,30.26,8.56,29.37,8z M10.53,12.57c-0.34,0-0.61-0.27-0.61-0.61c0-0.34,0.27-0.61,0.61-0.61c0.34,0,0.61,0.27,0.61,0.61
		C11.14,12.3,10.86,12.57,10.53,12.57z"/>
	<path class="st1" d="M20.46,28.66c-0.26-0.73-0.53-1.45-0.85-2.16c-0.61-1.36-1.4-2.49-2.4-3.59c-0.17-0.18-0.44-0.52-0.44-0.52
		l-0.35-0.03l-0.08-0.02c-1.06-0.28-1.6-0.26-2.01,0.57c-0.9,1.86-1.95,1.63-3.7,1.23c-0.25-0.06-0.53-0.12-0.83-0.18
		c-0.32-0.07-0.56-0.05-0.71,0.05c-0.26,0.17-0.34,0.67-0.42,1.1c-0.09,0.5-0.18,1.02-0.57,1.28c-0.14,0.1-0.31,0.14-0.49,0.14
		c-0.08,0-0.16-0.01-0.25-0.03c-0.93-0.21-1.63-1.73-2.05-3.01c-0.12,0.08-0.25,0.17-0.37,0.28c-0.48,0.44-1.02,0.81-1.57,1.15
		c-0.23,0.14-0.47,0.27-0.71,0.4c-1.69,0.91-2.5,3.3-2.77,5.08c-0.03,0.2-0.05,0.4,0.01,0.59c0.1,0.28,0.4,0.46,0.7,0.51
		c0.56,0.09,1.19-0.12,1.73-0.24c0.96-0.22,1.95-0.58,2.94-0.58c1.33,0,2.62,0.4,3.95,0.48c1.42,0.09,2.85-0.05,4.28-0.02
		c1.03,0.02,2.06,0.05,3.09,0.15c0.96,0.09,1.98,0.38,2.95,0.27c0.6-0.07,1.47-0.39,1.63-1.05C21.35,29.86,20.67,29.25,20.46,28.66z
		"/>
	<path class="st1" d="M39.29,28.99c-0.43-1.39-0.94-2.83-1.75-4.07c-0.93-1.42-2.08-2.34-3.64-2.99c-0.45-0.19-0.52-0.51-0.79-0.93
		c-0.12-0.19-0.22-0.38-0.32-0.58c-0.01-0.02-0.02-0.04-0.03-0.06c-0.21,0.18-0.46,0.28-0.74,0.28c-0.04,0-0.07,0-0.11,0
		c-1.5-0.12-3.48-2.86-4.05-3.81c-0.36-0.6-0.71-0.93-1.06-1.01c-0.5-0.12-1.11,0.26-1.76,0.66l-0.22,0.14
		c-0.42,0.26-0.42,0.29-0.41,0.5c0.02,0.33,0.07,0.89-0.54,1.84c-0.68,1.08-1.59,1.09-2.26,1.09c-0.19,0-0.4,0-0.57,0.04
		c0.26,0.53,0.68,1.38,0.69,1.38c0.15,0.31,0.18,0.95,0.27,1.33c0.3,1.28,0.68,2.27,1.65,3.18c0.71,0.66,1.18,1.26,1.45,2.19
		c0.22,0.77,0.45,1.73,1.16,2.2c0.63,0.42,1.21-0.04,1.86,0.14c0.19,0.05,0.35,0.18,0.52,0.29c1.37,0.92,3.09,0.78,4.65,0.75
		c1.73-0.03,3.46-0.06,5.2-0.09c0.35-0.01,0.73-0.02,1.03-0.2C40.38,30.73,39.48,29.64,39.29,28.99z"/>
</g>
</svg>
