<?xml version="1.0" encoding="utf-8"?>
<!-- Generator: Adobe Illustrator 25.0.1, SVG Export Plug-In . SVG Version: 6.00 Build 0)  -->
<svg version="1.1" id="Layer_1" xmlns="http://www.w3.org/2000/svg" xmlns:xlink="http://www.w3.org/1999/xlink" x="0px" y="0px"
	 viewBox="0 0 113 74.7" style="enable-background:new 0 0 113 74.7;" xml:space="preserve">
<style type="text/css">
	.st0{fill:#EBEDF7;}
</style>
<path class="st0" d="M88.7,41.5c-3.4-0.3-8.2-6.9-9.8-9.5c-1.1-1.9-2.3-3-3.5-3.2c-0.3-0.1-0.6-0.1-0.9-0.1c-1.5,0-3.2,1-4.8,2
	l-0.6,0.4c-1.7,1-1.7,1.5-1.6,2.5c0.1,1,0.1,2.1-1.2,4.2C64.9,40,63,40,61.4,40c-0.2,0-0.4,0-0.6,0c-0.5,0-1,0.1-1.5,0.2l-0.6,0.2
	l-0.3-0.3c-1.6-1.6-3.2-3.2-3.4-5.8c0-0.7-0.1-1.3-0.2-2l0-0.2c-0.2-2-0.3-4.1-0.3-6.2c0.1-3.2,2.1-6.1,3.5-8
	c0.6-0.8,1.1-1.5,1.2-1.9c0.3-1,1.1-1.7,2.2-1.7c1.4,0,3.1,1.1,4.6,2.1c0.7,0.4,1.3,0.8,1.7,1c1.1,0.6,2.5,1.7,4.2,3
	c3,2.3,6.7,5.2,9.8,6.3c5.1,1.7,7.1,4.8,7.9,11.6c0.1,0.3,0.2,0.6,0.3,0.9c0.1,0.4,0.2,0.7,0.3,1l0.1,0.4L90.1,41
	c-0.4,0.4-0.8,0.6-1.3,0.6H88.7z M74.6,27c0.4,0,0.8,0,1.2,0.1c1.9,0.4,3.4,1.7,4.8,4.1c2.1,3.5,5.4,7.1,7.4,8.3l0.4,0.2l-0.2-0.9
	c-0.7-6.1-2.3-8.6-6.7-10.1c-3.2-1.1-6.8-3.9-9.7-6.1l-0.4-0.3c-1.5-1.2-2.9-2.1-4.2-3c-0.7-0.3-1.4-0.8-2-1.2l-0.3-0.2
	c-1.4-0.9-2.7-1.6-3.4-1.6c-0.2,0-0.3,0.1-0.4,0.4c-0.4,0.8-0.8,1.7-1.5,2.5l-0.2,0.3c-1.3,1.9-2.9,4.2-2.9,6.6
	c-0.1,2,0.1,4.3,0.3,6c0,0.4,0.1,0.8,0.1,1.1c0,0.4,0,0.7,0.1,1.1c0.2,1.8,1,2.7,2.3,4.1l0.1,0.1l0.1,0c0.8-0.1,1.4-0.1,2-0.1
	c1.6,0,2.5,0,3.4-1.4c1.1-1.9,1-2.5,0.9-3c-0.1-1.8,0.5-2.9,2.6-4.2l0.6-0.4C70.7,28,72.6,27,74.6,27z"/>
<path class="st0" d="M24.2,57.2c-1.5-0.2-3.2-2.9-4.7-7.4l-0.3-0.7l0.5-0.3c0.3-0.2,0.5-0.5,0.6-1c0.5-5,2.8-8.1,7.1-9.5
	c2.2-0.7,2.9-1.6,3.5-2.4c0.5-0.6,1-1.3,2.1-1.8c0.5-0.2,1.6-1,2.8-1.9c3.3-2.4,5.9-4.3,7.6-4.3c0.1,0,0.2,0,0.2,0
	c0.6,0,1.1,0.4,1.2,0.5l0.1,0.1l0,0.1c0.8,2.1,0.9,4.5,1,6.7c0,1.3,0.1,2.6,0.3,3.8c0.4,2.3,1,4.1,1.9,5.8l0.6,1.2l-1.3-0.3
	c-0.8-0.2-1.5-0.3-2.3-0.3l-0.2,0c-1.6,0-3,1-3.6,2.5c-1.2,2.5-2.3,3.4-4.3,3.4c-1.7-0.1-3.1-0.4-4.3-0.7c-0.3-0.1-0.7-0.2-1.1-0.2
	c-0.4-0.1-0.7-0.1-1-0.2c-0.2,0-0.4,0-0.7-0.1c-0.2,0-0.4,0-0.6,0c-0.6,0-1.2,0.2-1.7,0.5c-1,0.7-1.3,2.2-1.6,3.6l0,0.2
	c-0.1,1.3-0.4,2.1-0.9,2.5c-0.3,0.2-0.6,0.2-0.7,0.2H24.2z M43.1,29.9c-1.1,0.3-3.4,1.9-5.8,3.9c-0.9,0.8-2,1.5-3.1,2.2
	c-0.6,0.2-1,0.6-1.4,1.2c-1.3,1.6-2.8,2.6-4.6,3.1c-3.5,1.1-5.4,3.6-5.8,7.9c-0.1,0.5-0.3,1-0.7,1.5l-0.1,0.1l0,0.1
	c0.9,2.5,1.7,4,2.3,4.7l0.3,0.4l0.1-0.8c0.3-1.5,0.7-3.7,2.4-5c0.7-0.5,1.7-0.8,2.8-0.8c0.5,0,1,0.1,1.5,0.2c0.4,0.1,0.7,0.2,1,0.2
	c0.4,0.1,0.8,0.2,1.2,0.3c1.1,0.3,2.4,0.6,3.8,0.7c0.8,0,1.4-0.2,2.4-2.3c0.9-2.2,3-3.6,5.3-3.6c0.1,0,0.1,0,0.2,0l0.3,0l-0.1-0.3
	c-0.4-1.3-0.8-2.6-1-3.8c-0.2-1.5-0.3-2.8-0.3-4.2c0.1-1.8-0.1-3.5-0.6-5.4l-0.1-0.2L43.1,29.9z"/>
<path class="st0" d="M71.2,69.9c-0.2,0-0.3,0-0.4-0.1c-0.1,0-0.1,0-0.1,0l-0.1,0c-1.4-0.4-3-0.8-4.6-1.4l-0.4-0.1
	c-0.7-0.2-1.2-0.6-1.7-0.9c-4.9-3.4-8.6-11.6-8.2-13.4c0-0.1,0.1-0.2,0.1-0.3l0.1-0.1l0-0.1c-0.9-2.3-2.1-4.3-3.6-6.1
	c-4.1-4.8-5.6-10.9-6-15.2c-0.2-2.6-0.3-5-0.2-7.1c0-0.9,0.1-1.8,0.2-2.7c0.1-1.3,0.2-2.6,0.2-3.9v-0.3l-0.1-0.1
	c-0.2-0.2-0.8-0.5-1.3-0.6c-0.4-0.1-0.6-0.1-1-0.1c-0.4,0-0.8,0-1.2,0.1c-2,0.4-3.9,1.5-5.3,3.1L37.2,21c-1.4,1.5-2.9,3.2-5.2,3.2
	c-0.3,0-0.8,0-1.2-0.1c-1.1-0.3-1.9-1-2.5-1.9c-0.6-1-0.7-2.1-0.4-3.2c0.7-1.7,1.9-3,3.3-3.7c3.5-2.3,7.4-4.4,11.1-6.3
	c1.1-0.6,2.2-1.2,3.3-1.7L46,6.9c3-1.7,6.1-3.4,9.6-4.2c1.6-0.3,3-0.5,4.3-0.5c4.9,0,9.6,1.7,13.8,3.2c2.9,0.9,5.8,2.1,8.5,3.6
	c2.3,1.6,4.4,3.7,5.9,6l0.8,1.3l-1.5-0.4c-0.2-0.1-0.4-0.1-0.7-0.2l-0.2-0.1l-2,1.6l-0.5-2.3l-0.4-0.1l-2.1,1.7v-1.8
	c0-0.2-0.1-0.3-0.1-0.4l0-0.1L81,14.1l-1.7,1.7l-0.6-2.2l-0.5-0.1l-1.7,1.7l-0.6-2.2l-0.6-0.1l-1.6,1.6L73,12l-0.5-0.1L71,13.5
	l-0.6-2.3l-0.5-0.1l-1.7,1.7l-0.3-1c0-0.1-0.1-0.4-0.2-0.7c-0.1-0.3-0.2-0.5-0.2-0.6l-0.1-0.4l-1.5,2.2l-0.5-0.9
	c0,0-0.2-0.4-0.3-0.8c-0.1-0.2-0.2-0.4-0.2-0.5l-0.1-0.1l0-0.1l-0.1-0.4l-0.6,1c-0.1,0.4-0.3,0.6-0.4,0.7L63.2,12l-1.5-2.3l-0.1,0.4
	c0,0.1-0.1,0.4-0.2,0.7c-0.1,0.4-0.2,0.7-0.2,0.7l-0.2,0.7l-0.7-0.4c-0.1,0-0.4-0.3-0.7-0.7c-0.1-0.1-0.2-0.2-0.3-0.3L59,10.6v0.9
	c0,0.3,0.1,0.5,0.1,0.5l0.4,1.4l-1.9-0.9c-0.1,0-0.1,0-0.2,0c-0.1,0-0.2,0-0.4-0.1l-0.5-0.2l0.6,0.9c0.1,0.1,0.1,0.2,0.2,0.2
	c0.1,0.2,0.2,0.3,0.3,0.4l0.4,0.9h-1.7c-0.2,0-0.4,0-0.5,0.1c-0.1,0-0.2,0.1-0.5,0.1c-0.1,0.1-0.2,0.1-0.2,0.1l-0.1,0l0,0.1
	c-0.1,0.2-0.1,0.3-0.1,0.3c-1,1.7-1.2,3.9-1.4,5.9L53.5,22c-0.3,2.4-0.4,4.8-0.4,7.6c-0.1,4,0.5,7.7,1.9,11.2c0.8,1.9,1.9,3.6,3,5.4
	c0.5,0.8,1.1,1.7,1.6,2.5l0.2,0.3l0.2-0.2c0.2-0.3,0.4-0.5,0.4-0.6l0.1-0.1c0.3-0.3,0.7-0.3,0.8-0.3c0.3,0,0.6,0.1,0.7,0.4
	c0.3,0.4,0.3,1.1,0,2.4c-0.2,0.6,0,1.3,0.2,2c0.2,0.7,0.5,1.5,0.3,2.2c-0.1,0.4,0.1,0.6,0.6,1.1c0.4,0.5,1,1.1,1,1.9
	c0,0.4,0.1,0.5,0.5,0.8c0.3,0.2,0.8,0.5,1.2,1.3c0.2,0.5,0.4,0.9,0.5,1.2c0.1,0.3,0.2,0.5,0.2,0.5l0.2,0.3l0.1-0.2c0,0,0.1,0,0.1,0
	l0.1,0c1.3,0.3,1.8,2.7,1.7,4.2c0,0.1,0,0.2,0,0.3l0,0.1l0.1,0.1c0.2,0.2,0.5,0.3,0.8,0.5l0.6,0.4l0.1,0.1c1.6,1,2,1.5,1.9,2.1
	C72,69.6,71.8,69.9,71.2,69.9z M57.6,54.9l0,0.1c0.4,1.8,3.1,8,7.3,11c0.4,0.3,0.9,0.5,1.4,0.7l0.2,0h0.2v-0.2l0.1-0.2
	c0-0.1,0-0.2,0-0.2c0.1-0.9-0.1-1.6-0.4-2.3l0-0.1l-0.1,0c-1.3-0.3-1.6-1.4-1.7-1.9c-0.1-0.4-0.2-0.7-0.3-0.9
	c-0.2-0.3-0.4-0.6-0.6-0.7c-0.7-0.4-1.2-1.2-1.3-2.1c-0.1-0.4-0.2-0.6-0.5-0.8c-0.9-0.7-1.3-1.7-1.1-2.8c0-0.5-0.1-0.9-0.3-1.3
	c-0.1-0.3-0.2-0.6-0.3-0.9l-0.1-0.4l-0.5,0.7l-0.9-1.7c-0.5-0.9-1.1-1.7-1.6-2.6l-0.6-0.9c-1-1.6-2.2-3.5-3.2-5.7
	c-1.4-3.7-2.1-7.7-2-12c0-2.9,0.1-5.5,0.4-7.9c0-0.1,0-0.2,0.1-0.5c0-0.1,0-0.2,0-0.4l0.1-0.6c0.2-1.9,0.4-3.9,1.4-5.7l0,0l0-0.1
	c0.1-0.6,0.6-1.1,1.1-1.3c0.2-0.1,0.3-0.2,0.5-0.2l0.2-0.1l0-0.2l-0.2-0.4l0.4-0.6c0.1-0.2,0.2-0.3,0.3-0.4c0.1-0.1,0.2-0.2,0.3-0.4
	l0.6-0.6l0.8,0.2V9.4l0.5-0.5l0.1,0c0.1-0.1,0.2-0.1,0.2-0.2l0.8-0.6l0.9,0.7C59.9,8.9,60,8.9,60,9l0.2,0.2l0.4-0.7V8.4L61,7.6h1.4
	L62.9,8C63,8.1,63,8.2,63.1,8.3l0.2,0.3l0.3-0.4l0.6-0.7l0.7,0.2c0.2,0,0.3,0.1,0.4,0.1l0.2,0l0,0L66,7.9l0.5,0.8l0.3-0.5l1.5,0.4
	l0.2,0l0.7,0.2l0.1,0.2L69.5,9l0.6,0.2l0.3,0l0.1,0c0.1,0,0.3,0.1,0.5,0.1c0.2,0.1,0.4,0.1,0.5,0.2l2,0.5c0.2,0.1,0.3,0.1,0.4,0.1
	c0.2,0,0.3,0.1,0.5,0.1l0.7,0.2l0,0.2l0.6,0.2l0.7,0.2l0.5,0.1l0.9,0.2l0,0h0.8l0.8,0.2l1.1,0.3l0.1,0.1l0.7,0.2
	c0.4,0,0.7,0.1,0.9,0.2l0.2,0l0.6,0.2l0.1-0.2l0.1,0.4l0.1,0.3l0.5-0.3l-0.2-0.2l-0.5-0.5l0,0c-0.6-0.5-1.2-0.9-1.7-1.3
	c-2.4-1.4-5-2.4-7.6-3.2l-0.6-0.2l-0.9-0.3l-1-0.3C67.5,5.3,63.6,4,59.9,4c-0.3,0-0.5,0-0.7,0c-1,0-2.1,0.2-2.9,0.5
	c-3.1,0.8-5.9,2.4-8.6,3.9l-0.9,0.5c-0.3,0.2-0.7,0.4-1.1,0.6c-0.4,0.2-0.7,0.4-1.1,0.6l-1.3,0.7c-3.5,1.9-7.2,3.8-10.6,6L32.3,17
	l0.5,0.1c1.3,0.3,2.3,1.4,2.3,2.8c0,0.1,0,0.3,0,0.4L35,21l0.4-0.4c0.2-0.2,0.3-0.4,0.5-0.5l0.4-0.5c1.5-1.8,3.7-3.1,6.3-3.7
	c0.5-0.1,1-0.1,1.5-0.1c0.4,0,0.9,0,1.3,0.1c0.6,0.1,2.3,0.7,2.7,2l0,0.1l0,0.8c0,1.2-0.1,2.5-0.2,3.8c-0.1,1-0.2,2-0.2,2.9
	c-0.1,2.1,0,4.3,0.2,6.8c0.5,3.9,1.9,9.6,5.7,14.2c1.6,2,3,4.4,4.1,7.2l0.4,1L57.6,54.9z M32.2,18.9c-0.6,0-1,0.4-1,1
	c0,0.6,0.4,1,1,1c0.6,0,1-0.4,1-1C33.2,19.4,32.7,18.9,32.2,18.9z"/>
<path class="st0" d="M54.6,72.5c-1.4,0-2.7-0.2-4.1-0.4c-0.9-0.1-1.8-0.3-2.6-0.4c-2.5-0.3-5.1-0.4-8.1-0.4h-0.9c-1.2,0-2.4,0-3.6,0
	l-0.1,0c-1.3,0-2.5,0-3.8,0c-0.9,0-1.9,0-2.9-0.1c-1.6-0.1-3.2-0.4-4.7-0.6c-2-0.3-3.8-0.7-5.6-0.7c-2,0-4,0.5-5.9,1
	c-0.6,0.2-1.2,0.3-1.7,0.4c-1.1,0.4-2.4,0.6-3.9,0.7c-0.2,0-0.4,0-0.5-0.1c-0.1,0-0.2,0-0.2,0c-1.1-0.1-2-0.8-2.4-1.7l0-0.1
	c-0.1-0.7-0.1-1.2,0-1.8c0.4-2.5,2-10.8,7.6-13.8c0.2-0.1,0.4-0.2,0.6-0.3c0.5-0.3,0.9-0.5,1.2-0.7c1.6-0.8,3-2,4.1-3l0.5-0.3
	c0.2-0.2,0.4-0.3,0.6-0.4l0.7-0.4l0.2,0.7c1.5,4.4,3.2,7.1,5,7.5l0.1,0c0.1,0,0.1,0,0.3,0c0.4,0,0.7-0.1,0.9-0.3
	c0.8-0.6,1.1-1.9,1.3-3l0-0.2c0.2-1.2,0.4-2.5,1.3-3.1l0.1-0.1l0.1,0c0.2-0.1,0.7-0.2,1.2-0.2c0.3,0,0.7,0,1.1,0.1
	c0.3,0.1,0.6,0.1,0.8,0.2c0.5,0.1,0.9,0.2,1.3,0.3c1.3,0.3,2.7,0.6,4.4,0.7c1.8,0,3.3-0.6,4.7-3.7c0.5-1.3,1.8-2.2,3.3-2.2
	c1,0.1,1.8,0.2,2.5,0.4l0.2,0.1l1.1,0.1l0.2,0.2c0,0,0.8,0.9,1.2,1.4c2.6,2.8,4.7,6,6.4,9.6c0.8,1.9,1.5,3.9,2.2,5.7
	c0.2,0.5,0.5,1,0.8,1.5c0.7,1.1,1.4,2.3,1.1,3.7c-0.4,2-2.8,3-4.8,3.3C55.4,72.5,55,72.5,54.6,72.5z M40.3,69.2c0.6,0,1.2,0,1.9,0.1
	l0.2,0c1.9,0.1,4,0.1,6.1,0.3c0.5,0.1,0.9,0.1,1.3,0.2c0.5,0.1,0.8,0.1,1.3,0.2c1.3,0.2,2.6,0.4,3.8,0.4c0.2,0,0.3,0,0.4,0
	c0.2,0,0.4-0.1,0.7-0.1c1.2-0.1,2.9-0.7,3.1-1.7c0.1-0.6-0.3-1.3-0.8-2.2L58.1,66c-0.3-0.5-0.6-1-0.8-1.6c-0.8-2.3-1.5-4.1-2.2-5.5
	c-1.5-3.4-3.6-6.5-6.1-9.1c-0.3-0.4-0.6-0.7-0.8-0.9l-0.1-0.1h-0.7l-0.2-0.1c-0.9-0.2-1.5-0.4-2.2-0.4c-0.6,0-1,0.1-1.3,1.1
	c-1.6,3.3-3.6,4.8-6.5,4.8c-1.4,0-2.9-0.2-4.8-0.7c-0.4-0.1-0.7-0.2-1.1-0.3c-0.4-0.1-0.7-0.2-1.1-0.2c-0.3-0.1-0.4-0.1-0.7-0.1
	c-0.1,0-0.3,0-0.3,0l0,0.1c-0.1,0.3-0.2,0.9-0.4,1.5L28.9,55c-0.2,1.5-0.6,3.1-2,4.2c-0.7,0.4-1.4,0.6-2,0.6c-0.3,0-0.6,0-1-0.1
	c-2.1-0.5-4-2.8-5.6-6.9l-0.1-0.3l-0.2,0.2c-1.2,1-2.4,1.8-3.7,2.6c-0.4,0.3-0.8,0.5-1.3,0.8l-0.6,0.3c-3.2,1.7-5.6,6.1-6.7,12.5
	c-0.1,0.3-0.1,0.6,0,0.9c0.1,0.3,0.4,0.5,0.7,0.5h0.6c1-0.1,1.9-0.2,2.7-0.5c0.2-0.1,0.3-0.1,0.5-0.1c0.1,0,0.2,0,0.3-0.1
	c0.6-0.1,1.3-0.3,2-0.5c1.8-0.6,3.9-0.9,6.1-1c2.3,0.1,4.3,0.3,6.1,0.7c1.4,0.3,3,0.5,4.5,0.6c0.9,0.1,1.8,0.1,2.8,0.1
	c0.6,0,1.2,0,1.8,0c0.7,0,1.3,0,1.9,0c1.3-0.1,2.5-0.1,3.8-0.1H40.3z"/>
<path class="st0" d="M88.9,72.4c-2.9,0-6.3-0.2-9.1-2.1l-0.1-0.1c-0.3-0.3-0.7-0.5-1.2-0.7c-0.2-0.1-0.4-0.1-0.7-0.1
	c-0.4,0-0.7,0-1.1,0.1c-0.4,0.1-0.8,0.1-1.3,0.1c-0.6,0-1.3-0.2-1.9-0.6c-1.9-1.2-2.6-3.6-3.2-5.6L70.1,63c-0.5-2.1-1.8-4-3.6-5.5
	c-2.7-2.5-3.8-5.2-4.6-8.7c-0.1-1.2-0.4-2.4-0.7-3.5c-0.2-0.4-1.2-2.5-1.8-3.6L59.1,41l0.8-0.2c0.6-0.1,1.1-0.1,1.6-0.1
	c1.8,0,3.9,0,5.5-2.6c1.5-2.4,1.4-3.8,1.3-4.5c0-0.9,0.3-1.2,1.4-1.9l0.6-0.4l0.3-0.2c1.4-0.9,2.8-1.7,4.1-1.7h0.6l0.1,0
	c0.8,0.3,2,1,3.1,3c1.9,3.1,6.8,9.5,10.2,9.8l0.3,0c0.7,0,1.2-0.2,1.6-0.5l1-1v1.2c0,0.1,0.1,0.2,0.1,0.2c0.2,0.5,0.5,0.9,0.7,1.3
	c0.2,0.3,0.3,0.5,0.4,0.7c0.4,0.8,0.7,1.2,1.4,1.6c4.1,1.7,7.6,4.5,9.9,8.1c2.1,3.6,3.7,7.3,4.7,11c0.1,0.4,0.3,0.8,0.6,1.3
	c0.8,1.7,1.9,4-0.2,5.3c-0.8,0.4-1.7,0.6-2.5,0.6c-0.2,0-0.4,0-0.5,0c-4.4,0-8.9,0.1-13.4,0.2l-0.2,0C91.3,72.4,90.1,72.4,88.9,72.4
	z M77.8,67.6c0.4,0,0.8,0,1.2,0.1c0.5,0.1,1,0.4,1.6,0.8l0.2,0.1c2.5,1.7,5.5,1.8,8.1,1.8h3.5c4.4,0,9-0.1,13.5-0.2l0.3,0
	c0.1,0,0.3,0,0.4,0c0.5,0,1.2-0.1,1.7-0.4c0.4-0.2,0.6-0.6-0.5-2.9c-0.3-0.5-0.5-1-0.7-1.5c-1.2-3.9-2.7-7.5-4.6-10.5
	c-2.1-3.3-5.3-5.9-9-7.4c-1-0.5-1.9-1.3-2.3-2.3C91,45,91,44.8,90.8,44.6l0-0.1l-0.3-0.6l-0.2,0c-0.4,0.1-0.8,0.2-1.3,0.2h-0.3
	c-4.3-0.3-9.1-6.7-11.6-10.5L77,33.5C76,32,75.4,31.5,75,31.4l-0.3,0c-0.6,0-1.4,0.4-2.2,0.8c-0.4,0.2-0.9,0.4-1.4,0.6l-0.7,0.4
	l-0.1,0c-0.1,0-0.2,0.1-0.3,0.1L70,33.4l0,0.1c0.1,1.2,0,2.8-1.6,5.4c-1.9,3-4.3,3.4-6.2,3.5l-0.3,0l1,1.9c0.4,1,0.6,2,0.7,2.6
	c0,0.2,0.1,0.4,0.1,0.6c0,0.2,0,0.4,0.1,0.5c0.8,3.2,1.7,5.6,4,7.9c2,1.7,3.4,3.9,4.2,6.4l0.2,0.6c0.5,1.6,1,3.7,2.4,4.6
	c0.3,0.3,0.8,0.3,1,0.3c0.4,0,0.6,0,1-0.1l0.1,0c0.2,0,0.3,0,0.5,0C77.3,67.6,77.6,67.6,77.8,67.6z"/>
</svg>
