<?xml version="1.0" encoding="utf-8"?>
<!-- Generator: Adobe Illustrator 25.0.1, SVG Export Plug-In . SVG Version: 6.00 Build 0)  -->
<svg version="1.1" id="Layer_1" xmlns="http://www.w3.org/2000/svg" xmlns:xlink="http://www.w3.org/1999/xlink" x="0px" y="0px"
	 viewBox="0 0 26 14.2" style="enable-background:new 0 0 26 14.2;" xml:space="preserve">
<style type="text/css">
	.st0{opacity:0.78;}
	.st1{fill:#373737;}
</style>
<g id="helicopter" class="st0">
	<g id="Group_9">
		<g id="Group_8">
			<path id="Path_83" class="st1" d="M23.2,2.2V1.5H5v0.7h8.8v1.4h-1.1c-0.4,0-0.9,0.2-1.2,0.5L9.9,5.6C9.7,5.8,9.4,5.9,9.1,5.9h-4
				L4.5,4.6H2.8l0.8,2.4L2.8,9.3h1.7L5.2,8h4c0.3,0,0.5,0.1,0.7,0.3l1.9,1.9c0.3,0.3,0.7,0.5,1.2,0.5h0.8V12h-1.4v0.7h10.5V12h-2.4
				v-1.4h0.7c0.9,0,1.7-0.8,1.7-1.7V8.5c0-0.4-0.2-0.9-0.5-1.2l-2.2-2.2c-0.3-0.3-0.7-0.5-1.2-0.5h-1.3l-0.5-0.5
				c-0.3-0.3-0.7-0.5-1.2-0.5h-1.5V2.2L23.2,2.2z M4.6,7.5L4.1,8.6H3.8l0.4-1.4h0.4L4.6,7.5z M4.6,6.6H4.2L3.8,5.3h0.3l0.5,1.1
				L4.6,6.6z M19.8,12h-5.4v-1.4h5.4V12z M17.8,5.3h1.1c0.3,0,0.5,0.1,0.7,0.3l2.2,2.2c0,0,0.1,0.1,0.1,0.1c0,0,0,0,0,0
				c0,0,0,0.1,0.1,0.1c0,0,0,0,0,0c0,0.1,0,0.1,0,0.2h-4c-0.2,0-0.3-0.2-0.3-0.3L17.8,5.3L17.8,5.3z M15.9,4.2
				c0.3,0,0.5,0.1,0.7,0.3l0.5,0.5V8c0,0.6,0.5,1,1,1h4.1c0,0.6-0.5,1-1,1H13c-0.3,0-0.5-0.1-0.7-0.3l-1.9-1.9
				C10,7.5,9.6,7.3,9.1,7.3H5.3V6.6h3.8c0.4,0,0.9-0.2,1.2-0.5l1.6-1.6c0.2-0.2,0.4-0.3,0.7-0.3L15.9,4.2z"/>
		</g>
	</g>
	<g id="Group_11" transform="translate(13.956 4.309)">
		<g id="Group_10" transform="translate(0 0)">
			<path id="Path_84" class="st1" d="M1.5,0.6H0.8c-0.6,0-1,0.5-1,1v2c0,0.6,0.5,1,1,1h0.7c0.6,0,1-0.5,1-1v-2
				C2.5,1.1,2,0.6,1.5,0.6C1.5,0.6,1.5,0.6,1.5,0.6z M1.8,3.6C1.8,3.8,1.7,4,1.5,4H0.8C0.6,4,0.5,3.8,0.5,3.6v-2
				c0-0.2,0.2-0.3,0.3-0.3h0.7c0.2,0,0.3,0.2,0.3,0.3L1.8,3.6z"/>
		</g>
	</g>
</g>
</svg>
