<?xml version="1.0" encoding="utf-8"?>
<!-- Generator: Adobe Illustrator 25.0.1, SVG Export Plug-In . SVG Version: 6.00 Build 0)  -->
<svg version="1.1" id="Layer_1" xmlns="http://www.w3.org/2000/svg" xmlns:xlink="http://www.w3.org/1999/xlink" x="0px" y="0px"
	 viewBox="0 0 35.5 34.4" style="enable-background:new 0 0 35.5 34.4;" xml:space="preserve">
<style type="text/css">
	.st0{opacity:0.72;fill:#373737;enable-background:new    ;}
</style>
<g id="hiking" transform="translate(-42.265 -69.503) rotate(7)">
	<path id="Path_71" class="st0" d="M86.6,80.8h-1.4c-0.2,0-0.3,0.1-0.4,0.2l-0.9,1.1c-0.2,0.2-0.1,0.6,0.1,0.8
		c0.2,0.2,0.6,0.1,0.8-0.1l0.7-0.9h1.2c0.3,0,0.6-0.3,0.6-0.6C87.2,81.1,86.9,80.8,86.6,80.8z"/>
	<path id="Path_72" class="st0" d="M81.2,85.5c-0.2-0.2-0.6-0.1-0.8,0.1c0,0,0,0,0,0l-0.8,1l-2.5,0l-2-6.8c0.8-0.3,1.2-1.2,0.9-2
		c-0.2-0.6-0.8-1-1.4-1h-0.3l-0.4-1.4c-0.1-0.3-0.4-0.5-0.7-0.4c-0.3,0.1-0.5,0.4-0.4,0.7l0,0l0.3,1.1h-0.3l-2.1-2
		c0,0,0.1-0.1,0.1-0.1c1.2-0.9,1.5-2.6,0.7-3.8c-0.9-1.2-2.6-1.5-3.8-0.7c-1.2,0.9-1.5,2.6-0.7,3.8c0.1,0.1,0.2,0.2,0.3,0.3
		c-0.2,0.1-0.3,0.2-0.4,0.3c-0.3-0.6-0.8-1-1.4-1.1c-0.5-0.1-1,0-1.5,0.3c-0.4,0.3-0.7,0.8-0.8,1.3c-0.1,0.3,0,0.7,0.1,1
		c0,0-0.1,0-0.1,0c-0.1,0.1-0.2,0.2-0.2,0.4l-0.8,4.6c-0.2,0.8,0.4,1.6,1.2,1.8l1,0.2c0.1,0,0.2,0,0.3,0c0.1,0,0.1,0,0.2,0l-0.2,2.7
		l-1.4,2.8c-0.3,0.5-0.3,1.2,0,1.7h-0.7c-0.1,0-0.2,0-0.3,0.1l-4.6,2.9c-0.3,0.2-0.3,0.5-0.2,0.8c0.2,0.3,0.5,0.3,0.8,0.2l4.4-2.8
		h2.2c0,0,0.1,0,0.1,0c0,0,0.1,0,0.1,0l6.1,0c0.1,0,0.3-0.1,0.4-0.2l3.8-3.6h4.7c0.2,0,0.3-0.1,0.4-0.2l1-1.2
		C81.5,86.1,81.5,85.7,81.2,85.5z M67,83.4c-0.2,0-0.5-0.1-0.7-0.2c-0.3-0.2-0.5-0.6-0.5-1c0-0.1,0-0.2,0.1-0.3c1.3,0,2.5-0.4,3.6-1
		l-0.1,0.8c0,0.2,0.1,0.5,0.3,0.6l2,1l2.4,3c0.3,0.4,0.2,0.9-0.1,1.2c-0.4,0.3-0.9,0.2-1.2-0.1c0,0,0,0,0,0l-2-2.6
		c-0.1-0.1-0.1-0.1-0.2-0.2l-1.7-0.8c0,0-0.1,0-0.2,0L67,83.4z M74.9,85.5l-2.4-3.1c0,0-0.1-0.1-0.1-0.1c0,0,0,0-0.1,0l-1.8-0.8
		l0.3-1.6H74l2,6.7h-0.6C75.3,86.2,75.2,85.9,74.9,85.5L74.9,85.5z M72.6,78l2,0c0.2,0,0.4,0.2,0.4,0.4s-0.2,0.4-0.4,0.4l-4,0
		l-1.1-1c-0.2-0.2-0.6-0.2-0.8,0.1c-0.2,0.2-0.2,0.6,0.1,0.8l0.9,0.8c-0.9,0.9-2.2,1.4-3.4,1.4l0.2-1.2l0.4-2.3l0,0l0.1-0.7
		c0.2-0.9,1-1.5,1.9-1.4h0.1h0c0.4,0,0.7,0.1,1,0.4l0,0l2.3,2.2C72.3,77.9,72.4,78,72.6,78L72.6,78z M67.6,72.2
		c0.2-0.9,1-1.5,1.9-1.3c0.9,0.2,1.5,1,1.3,1.9c-0.2,0.9-1,1.5-1.9,1.3C68.1,73.9,67.5,73.1,67.6,72.2L67.6,72.2L67.6,72.2z
		 M64.2,75.4c0-0.2,0.2-0.4,0.3-0.6c0.1-0.1,0.3-0.1,0.5-0.1c0,0,0.1,0,0.1,0c0.5,0.1,0.8,0.5,0.7,1c0,0.2-0.2,0.4-0.3,0.6
		c-0.2,0.1-0.4,0.2-0.6,0.1C64.5,76.3,64.2,75.8,64.2,75.4L64.2,75.4z M64.4,82l-1-0.2c-0.2-0.1-0.3-0.2-0.3-0.4l0.7-4l1.6,0.3
		l-0.3,1.6l-0.4,2.5C64.8,81.9,64.6,82,64.4,82L64.4,82z M64.5,90.3c-0.4-0.2-0.6-0.7-0.4-1.1c0,0,0,0,0,0l1.4-2.9
		c0-0.1,0.1-0.1,0.1-0.2l0.1-1.8c0.4,0.2,0.9,0.3,1.4,0.4l0.3,0l-0.1,1.8l-1.7,3.4c-0.1,0.3-0.4,0.4-0.7,0.5h-0.1
		C64.7,90.4,64.6,90.3,64.5,90.3L64.5,90.3z M70.8,90.4h-4.1l1.7-3.5c0-0.1,0.1-0.1,0.1-0.2l0.1-1.8l1.3,0.6l2,2.5
		c0.2,0.3,0.5,0.5,0.8,0.6L70.8,90.4z"/>
	<path id="Path_81" class="st0" d="M83.4,84c-0.1-0.3-0.5-0.4-0.7-0.3c-0.3,0.1-0.4,0.5-0.3,0.7c0.1,0.3,0.5,0.4,0.7,0.3
		c0,0,0.1,0,0.1-0.1C83.5,84.5,83.6,84.2,83.4,84z"/>
</g>
</svg>
