<?xml version="1.0" encoding="utf-8"?>
<!-- Generator: Adobe Illustrator 25.0.1, SVG Export Plug-In . SVG Version: 6.00 Build 0)  -->
<svg version="1.1" id="Layer_1" xmlns="http://www.w3.org/2000/svg" xmlns:xlink="http://www.w3.org/1999/xlink" x="0px" y="0px"
	 viewBox="0 0 311 74.7" style="enable-background:new 0 0 311 74.7;" xml:space="preserve">
<style type="text/css">
	.st0{fill:#FFFFFF;}
	.st1{fill:#BABFE1;}
	.st2{fill:#0080C5;}
</style>
<g id="Group_18" transform="translate(130.705 79.316)">
	<path id="Path_129" class="st0" d="M-3.6-12.2v-1.5c0-0.2,0-0.3-0.1-0.4c-0.1-0.1-0.3-0.1-0.4-0.1h-1c-1.1,0-1.7-0.5-1.7-1.6v-1.9
		c0-1.1,0.6-1.6,1.7-1.6h1.3c1.2-0.1,1.8,0.5,1.8,1.6v0.9h-1.6v-0.8c0-0.2,0-0.3-0.1-0.4c-0.2-0.1-0.3-0.1-0.5-0.1h-0.4
		c-0.2,0-0.3,0-0.4,0.1c-0.2,0.1-0.2,0.3-0.2,0.4v1.5c0,0.2,0,0.3,0.1,0.4c0.1,0.1,0.3,0.1,0.4,0.1h1c0.8,0,1.6,0.5,1.7,1.3
		c0,0.1,0,0.3,0,0.4v1.8c0,1.1-0.6,1.6-1.7,1.6H-5c-1.1,0-1.7-0.5-1.7-1.6v-0.8h1.6v0.7c0,0.2,0,0.3,0.1,0.4
		c0.1,0.1,0.3,0.1,0.4,0.1h0.4c0.2,0,0.4,0,0.5-0.1C-3.6-11.9-3.6-12.1-3.6-12.2z"/>
	<path id="Path_130" class="st0" d="M4.7-19.4h1.7v9H4.7v-0.7c-0.2,0.5-0.6,0.8-1.1,0.7H2.9c-0.8,0.1-1.5-0.4-1.7-1.2
		c0-0.1,0-0.3,0-0.4v-7.4h1.7v7.1c0,0.2,0,0.3,0.1,0.4c0.1,0.1,0.3,0.1,0.4,0.1H4c0.2,0,0.3,0,0.5-0.1c0.1-0.1,0.2-0.3,0.1-0.5
		L4.7-19.4L4.7-19.4z"/>
	<path id="Path_131" class="st0" d="M12.6-19.4h0.6c0.8-0.1,1.5,0.4,1.7,1.2c0,0.1,0,0.3,0,0.4v5.7c0.1,0.8-0.5,1.5-1.3,1.6
		c-0.1,0-0.3,0-0.4,0h-0.6c-0.5,0.1-1-0.2-1.1-0.7v3.3H9.8v-11.5h1.7v0.7C11.6-19.2,12.1-19.4,12.6-19.4z M13.3-12.3v-5.2
		c0-0.2,0-0.3-0.1-0.4C13.1-18,12.9-18,12.8-18h-0.6c-0.2,0-0.3,0-0.5,0.1c-0.1,0.1-0.2,0.3-0.1,0.5v5c0,0.2,0,0.4,0.1,0.5
		s0.3,0.2,0.5,0.1h0.6c0.2,0,0.3,0,0.4-0.1S13.3-12.1,13.3-12.3L13.3-12.3z"/>
	<path id="Path_132" class="st0" d="M21.1-19.4h0.6c0.8-0.1,1.5,0.4,1.7,1.2c0,0.1,0,0.3,0,0.4v5.7c0.1,0.8-0.5,1.5-1.3,1.6
		c-0.1,0-0.3,0-0.4,0h-0.6c-0.5,0.1-1-0.2-1.1-0.7v3.3h-1.7v-11.5H20v0.7C20.1-19.2,20.6-19.4,21.1-19.4z M21.7-12.3v-5.2
		c0-0.2,0-0.3-0.1-0.4C21.5-18,21.3-18,21.2-18h-0.6c-0.2,0-0.3,0-0.5,0.1c-0.1,0.2-0.2,0.3-0.2,0.5v5c0,0.2,0,0.4,0.1,0.5
		s0.3,0.2,0.5,0.1h0.6c0.2,0,0.3,0,0.4-0.1C21.7-12,21.8-12.1,21.7-12.3z"/>
	<path id="Path_133" class="st0" d="M28.3-19.4h2c1.1,0,1.7,0.5,1.7,1.6v5.7c0,1.1-0.6,1.6-1.7,1.6h-2c-1.1,0-1.7-0.5-1.7-1.6v-5.7
		c-0.1-0.8,0.5-1.5,1.3-1.6C28.1-19.4,28.2-19.4,28.3-19.4z M30.4-12.3v-5.2c0.1-0.2-0.1-0.5-0.3-0.6c-0.1,0-0.2,0-0.3,0h-1
		c-0.2,0-0.3,0-0.4,0.1c-0.1,0.1-0.1,0.3-0.1,0.4v5.3c0,0.2,0,0.3,0.1,0.4c0.1,0.2,0.3,0.2,0.4,0.2h1c0.2,0.1,0.5-0.1,0.6-0.3
		C30.4-12.1,30.4-12.2,30.4-12.3L30.4-12.3z"/>
	<path id="Path_134" class="st0" d="M38.5-19.4h0.4v1.4h-0.7c-0.8,0-1.2,0.5-1.2,1.4v6.2h-1.7v-9H37v1.1c0.1-0.3,0.3-0.6,0.5-0.8
		C37.8-19.3,38.1-19.4,38.5-19.4z"/>
	<path id="Path_135" class="st0" d="M44.6-18h-1.2v5.7c-0.1,0.2,0,0.5,0.3,0.5c0.1,0,0.2,0,0.3,0h0.7v1.4h-1.2
		c-1.2,0-1.7-0.5-1.7-1.6v-6H41v-1.4h0.8v-1.5h1.7v1.5h1.2L44.6-18L44.6-18z"/>
	<path id="Path_136" class="st0" d="M47.4-21.1v-1.6h1.7v1.6H47.4z M49.1-10.4h-1.7v-9h1.7V-10.4z"/>
	<path id="Path_137" class="st0" d="M55.4-19.4H56c0.8-0.1,1.5,0.4,1.7,1.2c0,0.1,0,0.3,0,0.4v7.3H56v-7c0-0.2,0-0.3-0.1-0.4
		C55.8-18,55.6-18,55.5-18h-0.6c-0.2,0-0.3,0-0.5,0.1c-0.1,0.1-0.2,0.3-0.1,0.5v7h-1.6v-9h1.7v0.7C54.4-19.2,54.9-19.4,55.4-19.4z"
		/>
	<path id="Path_138" class="st0" d="M64.5-19.4h1.7v9.9c0,1.1-0.6,1.6-1.7,1.6h-3.1v-1.3H64c0.2,0,0.3,0,0.4-0.1s0.1-0.3,0.1-0.4
		v-1.5c-0.2,0.5-0.6,0.8-1.1,0.7h-0.7c-0.8,0.1-1.6-0.5-1.7-1.2c0-0.1,0-0.3,0-0.4v-5.7c-0.1-0.8,0.4-1.5,1.2-1.6c0.1,0,0.3,0,0.4,0
		h0.7c0.5-0.1,1,0.2,1.1,0.7v-0.7H64.5z M63.2-11.9h0.6c0.2,0,0.3,0,0.5-0.1c0.1-0.1,0.2-0.3,0.1-0.5v-4.9c0-0.2,0-0.4-0.1-0.5
		C64.2-18,64-18.1,63.8-18h-0.6c-0.2,0-0.3,0-0.4,0.1c-0.1,0.1-0.1,0.3-0.1,0.4v5.1c0,0.2,0,0.3,0.1,0.4
		C62.9-11.9,63.1-11.8,63.2-11.9L63.2-11.9z"/>
	<path id="Path_139" class="st0" d="M80.3-19.4H81c0.8-0.1,1.5,0.4,1.7,1.2c0,0.1,0,0.3,0,0.4v7.3H81v-7c0.1-0.2,0-0.5-0.3-0.5
		c-0.1,0-0.2,0-0.3,0h-0.7c-0.4,0-0.6,0.2-0.6,0.6v7h-1.7v-7.1c0-0.2,0-0.3-0.1-0.4C77.2-18,77-18,76.9-18h-0.6
		c-0.2,0-0.3,0-0.5,0.1c-0.1,0.1-0.2,0.3-0.1,0.5v7H74v-9h1.7v0.7c0.2-0.5,0.6-0.8,1.1-0.7h0.6c0.6-0.1,1.3,0.2,1.5,0.8
		C79.2-19.1,79.7-19.5,80.3-19.4z"/>
	<path id="Path_140" class="st0" d="M87.6-19.4h2c1.1,0,1.7,0.5,1.7,1.6v5.7c0,1.1-0.6,1.6-1.7,1.6h-2c-1.1,0-1.7-0.5-1.7-1.6v-5.7
		c-0.1-0.8,0.5-1.5,1.3-1.6C87.3-19.4,87.5-19.4,87.6-19.4z M89.6-12.3v-5.2c0.1-0.2-0.1-0.5-0.3-0.6c-0.1,0-0.2,0-0.3,0h-1
		c-0.2,0-0.3,0-0.4,0.1c-0.1,0.1-0.1,0.3-0.1,0.4v5.3c0,0.2,0,0.3,0.1,0.4c0.2,0.2,0.3,0.2,0.5,0.2h1c0.2,0.1,0.5-0.1,0.6-0.3
		C89.7-12.1,89.7-12.2,89.6-12.3L89.6-12.3z"/>
	<path id="Path_141" class="st0" d="M98.1-19.4h1.7v9h-1.7v-0.7c-0.2,0.5-0.6,0.8-1.1,0.7h-0.7c-0.8,0.1-1.5-0.4-1.7-1.2
		c0-0.1,0-0.3,0-0.4v-7.4h1.7v7.1c0,0.2,0,0.3,0.1,0.4c0.1,0.1,0.3,0.1,0.4,0.1h0.6c0.2,0,0.3,0,0.5-0.1c0.1-0.1,0.2-0.3,0.1-0.5
		L98.1-19.4L98.1-19.4z"/>
	<path id="Path_142" class="st0" d="M106-19.4h0.6c0.8-0.1,1.5,0.4,1.7,1.2c0,0.1,0,0.3,0,0.4v7.3h-1.7v-7c0-0.2,0-0.3-0.1-0.4
		c-0.1-0.1-0.3-0.1-0.4-0.1h-0.6c-0.2,0-0.3,0-0.5,0.1c-0.1,0.1-0.2,0.3-0.1,0.5v7h-1.6v-9h1.7v0.7C105-19.2,105.5-19.4,106-19.4z"
		/>
	<path id="Path_143" class="st0" d="M114.8-18h-1.2v5.7c-0.1,0.2,0,0.5,0.3,0.5c0.1,0,0.2,0,0.3,0h0.7v1.4h-1.2
		c-1.2,0-1.7-0.5-1.7-1.6v-6h-1v-1.4h0.8v-1.5h1.7v1.5h1.2L114.8-18L114.8-18z"/>
	<path id="Path_144" class="st0" d="M120.9-19.4h1.7v9h-1.7v-0.7c-0.2,0.5-0.6,0.8-1.1,0.7h-0.7c-0.8,0.1-1.5-0.4-1.7-1.2
		c0-0.1,0-0.3,0-0.4v-5.8c-0.1-0.8,0.4-1.5,1.2-1.6c0.1,0,0.3,0,0.4,0h0.7c0.5-0.1,1,0.2,1.1,0.7L120.9-19.4L120.9-19.4z
		 M119.7-11.8h0.6c0.2,0,0.3,0,0.5-0.1c0.1-0.1,0.2-0.3,0.1-0.5v-5c0-0.2,0-0.4-0.1-0.5s-0.3-0.2-0.5-0.1h-0.6c-0.2,0-0.3,0-0.4,0.1
		s-0.1,0.3-0.1,0.4v5.2c0,0.2,0,0.3,0.1,0.4C119.4-11.8,119.5-11.7,119.7-11.8L119.7-11.8z"/>
	<path id="Path_145" class="st0" d="M126-21.1v-1.6h1.7v1.6H126z M127.7-10.4H126v-9h1.7V-10.4z"/>
	<path id="Path_146" class="st0" d="M133.9-19.4h0.6c0.8-0.1,1.5,0.4,1.7,1.2c0,0.1,0,0.3,0,0.4v7.3h-1.7v-7c0-0.2,0-0.3-0.1-0.4
		c-0.1-0.1-0.3-0.1-0.4-0.1h-0.6c-0.2,0-0.3,0-0.5,0.1c-0.1,0.1-0.2,0.3-0.1,0.5v7h-1.6v-9h1.7v0.7C133-19.2,133.4-19.4,133.9-19.4z
		"/>
	<path id="Path_147" class="st0" d="M145.9-10.4h-1.7v-12.3h1.7V-10.4z"/>
	<path id="Path_148" class="st0" d="M149.3-21.1v-1.6h1.7v1.6H149.3z M151-10.4h-1.7v-9h1.7V-10.4z"/>
	<path id="Path_149" class="st0" d="M157.6-21.3h-0.8c-0.2,0-0.3,0-0.4,0.1c-0.1,0.1-0.1,0.3-0.1,0.4v1.4h1.3v1.3h-1.3v7.6h-1.7
		v-7.6h-0.9v-1.3h0.9v-1.7c0-1.1,0.6-1.6,1.7-1.6h1.3V-21.3L157.6-21.3z"/>
	<path id="Path_150" class="st0" d="M162-19.4h1.8c1.2,0,1.7,0.5,1.7,1.6v3.4h-3.6v2.1c0,0.1,0,0.3,0.1,0.4c0.1,0.1,0.3,0.1,0.4,0.1
		h0.8c0.2,0.1,0.5-0.1,0.6-0.3c0-0.1,0-0.2,0-0.3V-13h1.6v1c0,1.1-0.6,1.6-1.7,1.6H162c-1.1,0-1.7-0.5-1.7-1.6v-5.8
		c-0.1-0.8,0.5-1.6,1.3-1.6C161.8-19.4,161.9-19.4,162-19.4z M161.9-15.6h2v-1.9c0-0.1,0-0.3-0.1-0.4c-0.1-0.1-0.3-0.1-0.4-0.1h-0.9
		c-0.2,0-0.3,0-0.4,0.1c-0.1,0.1-0.1,0.3-0.1,0.4L161.9-15.6L161.9-15.6z"/>
</g>
<g id="Group_19" transform="translate(129.97 54.913)">
	<path id="Path_151" class="st0" d="M-5.5-2.3v-15.4h-1.2l-0.1-1.2l2-1.8H-2v18.4H-5.5z"/>
	<path id="Path_152" class="st0" d="M5.7-2.3v-4.6H0v-2.9l4.4-10.9h4.5v10.8h2v3h-2v4.6H5.7z M3.3-9.9h2.4l0.5-4.2l0.3-3.6H5.9
		l-1.1,3.5L3.3-9.9z"/>
	<path id="Path_153" class="st0" d="M18.7-2.3v-18.4h4.4c1.3-0.1,2.7,0.3,3.7,1c0.9,0.9,1.3,2.2,1.2,3.4c0,0.6,0,1.2,0,1.8
		s0,1.2,0,1.8c0.1,1.3-0.4,2.5-1.2,3.4c-1.1,0.8-2.4,1.2-3.7,1h-1v5.9L18.7-2.3L18.7-2.3z M22.2-11.2h1c0.9,0,1.5-0.4,1.5-1.3
		c0-0.6,0-1.2,0-2s0-1.4,0-2c0-0.8-0.5-1.3-1.5-1.3h-1V-11.2z"/>
	<path id="Path_154" class="st0" d="M30-2.3v-18.4h8v3h-4.5v4.5h4.3v3h-4.3v4.8H38v3L30-2.3z"/>
	<path id="Path_155" class="st0" d="M39.3-2.3l2.6-18.4h5.4l2.6,18.4h-3.6l-0.4-3.8h-2.7l-0.4,3.8H39.3z M43.6-9.2h2l-0.4-4.1
		l-0.3-4.4h-0.6L44-13.3L43.6-9.2z"/>
	<path id="Path_156" class="st0" d="M51.3-2.3v-18.4H55v4.5l-0.6,4.1H55l1-4.2l1.7-4.4h3.8l-3.1,7.6l3.2,10.8h-3.5l-2-7l-1.3,2.8
		v4.2H51.3z"/>
	<path id="Path_157" class="st0" d="M69-2.3v-18.4h8v3h-4.5v4.5h4.3v3h-4.3v4.8H77v3L69-2.3z"/>
	<path id="Path_158" class="st0" d="M78.3-2.3l2.9-9.6l-2.8-8.8h3.4l1.2,4.3l0.3,3.1h0.5l0.2-3.1l1.2-4.3h3.4l-2.7,9l2.7,9.5h-3.4
		L84-6.8l-0.3-3.4h-0.5L83-6.8l-1.3,4.5H78.3z"/>
	<path id="Path_159" class="st0" d="M90.5-2.3v-18.4h4.4c1.3-0.1,2.7,0.3,3.7,1c0.9,0.9,1.3,2.2,1.2,3.4c0,0.6,0,1.2,0,1.8
		s0,1.2,0,1.8c0.1,1.3-0.4,2.5-1.2,3.4c-1.1,0.8-2.4,1.2-3.7,1h-1v5.9L90.5-2.3L90.5-2.3z M93.9-11.2h1c0.9,0,1.5-0.4,1.5-1.3
		c0-0.6,0-1.2,0-2s0-1.4,0-2c0-0.8-0.5-1.3-1.5-1.3h-1V-11.2z"/>
	<path id="Path_160" class="st0" d="M101.8-2.3v-18.4h8v3h-4.5v4.5h4.3v3h-4.3v4.8h4.5v3L101.8-2.3z"/>
	<path id="Path_161" class="st0" d="M111.3-2.3v-18.4h4.7c1.3-0.1,2.7,0.3,3.8,1.1c0.9,1,1.3,2.3,1.2,3.6c0,1.1,0,2.1,0.1,3
		c0,1,0,1.9,0,2.9s0,2-0.1,3.1c0.1,1.3-0.3,2.6-1.2,3.6c-1.1,0.8-2.4,1.2-3.8,1.1L111.3-2.3L111.3-2.3z M114.8-5.3h1.2
		c1,0,1.5-0.4,1.5-1.3c0.1-3.3,0.1-6.5,0-9.8c0-0.8-0.5-1.3-1.5-1.3h-1.2V-5.3z"/>
	<path id="Path_162" class="st0" d="M122.9-2.3v-18.4h3.5v18.4H122.9z"/>
	<path id="Path_163" class="st0" d="M130.9-2.3v-15.4h-3v-3h9.4v3h-3v15.4H130.9z"/>
	<path id="Path_164" class="st0" d="M138.7-2.3v-18.4h3.5v18.4H138.7z"/>
	<path id="Path_165" class="st0" d="M149.1-2.1c-1.3,0.1-2.6-0.3-3.7-1.1c-0.9-1-1.3-2.3-1.2-3.6c0-1.5,0-3.1,0-4.8s0-3.3,0-4.8
		c-0.1-1.3,0.3-2.6,1.2-3.5c1-0.8,2.4-1.2,3.7-1.1c1.3-0.1,2.6,0.3,3.6,1.1c0.8,1,1.3,2.2,1.2,3.5c0.1,1.5,0.1,3.1,0.1,4.8
		s0,3.3-0.1,4.8c0.1,1.3-0.4,2.6-1.2,3.6C151.7-2.3,150.4-1.9,149.1-2.1z M149.1-4.9c0.9,0,1.4-0.4,1.4-1.2s0.1-1.6,0.1-2.6
		c0-0.9,0-1.9,0-2.9s0-2,0-2.9c0-0.9,0-1.8-0.1-2.6c-0.1-0.8-0.5-1.2-1.4-1.2s-1.4,0.4-1.4,1.2c0,0.8-0.1,1.6-0.1,2.6
		c0,0.9,0,1.9,0,2.9s0,2,0,2.9s0,1.8,0.1,2.6C147.7-5.3,148.2-4.9,149.1-4.9L149.1-4.9z"/>
	<path id="Path_166" class="st0" d="M155.9-2.3v-18.4h5l1.4,5.9l1.3,9.5h0.6l-0.6-7.5l-0.4-7.9h3.3v18.4h-5.3l-1.4-6l-0.8-9.4h-0.6
		l0.6,8.3l0.3,7.1H155.9L155.9-2.3z"/>
</g>
<g>
	<path class="st1" d="M59.4,40.8c1.5,0,2.9,0,4.1-1.9c1.2-1.8,1.1-2.7,1-3.4c-0.1-1.1,0.1-1.7,1.8-2.7l0.5-0.3
		c1.9-1.2,3.6-2.2,5.5-1.8c1.3,0.3,2.5,1.4,3.6,3.2c2.1,3.4,6.1,8.2,8.5,8.4c0.4,0,0.7-0.1,1-0.4l0.1-0.1c0,0-0.4-1.2-0.5-1.8
		c-0.6-5.9-2.3-8.6-6.9-10.2c-4.6-1.6-10.3-7.1-12.9-8.4c-2.2-1.1-6.2-4.8-7.2-1.7c-0.5,1.5-4.2,4.9-4.3,9c0,2.5,0.3,5,0.5,7.5
		c0.2,2.2,1.4,3.4,2.9,4.9l0.3-0.1C58,40.8,58.7,40.8,59.4,40.8z"/>
	<path class="st1" d="M25.5,56.4c0.3,0.1,0.5,0,0.5,0c0.4-0.2,0.5-1.1,0.7-2c0.2-1.4,0.5-2.9,1.7-3.7c0.7-0.5,1.7-0.6,3-0.4
		c0.7,0.2,1.4,0.3,2,0.4c4.2,0.9,5.4,1.2,7.1-2.1c1.5-3.1,4-2.9,6.3-2.4c-0.9-1.7-1.5-3.5-1.8-5.4c-0.5-3,0-6.6-1.1-9.4
		c-0.9-2.4-8.4,4.4-10.1,5.2c-2.1,0.9-1.5,2.7-5.2,3.8c-3.7,1.1-5.7,3.8-6.1,8.2c-0.1,0.6-0.4,0.9-0.8,1.3l0.1,0.1
		C22.9,53.6,24.3,56.2,25.5,56.4z"/>
	<path class="st2" d="M78.1,13.4c-2.4-1.5-5-2.4-7.7-3.3c-5.3-1.8-10.7-3.8-16.3-2.5c-3.2,0.8-6.1,2.4-8.9,4
		c-4.4,2.4-8.9,4.7-13.1,7.4c-1.2,0.7-2.3,1.6-2.7,3.1C28.9,24,30.1,26,32,26.3c2.3,0.3,3.8-1.5,5.2-3c1.4-1.5,3.1-2.7,5.1-3
		c0.7-0.1,1.5-0.2,2.2,0c0.5,0.1,1.4,0.5,1.6,1c0,0.1,0,0.3,0,0.4c0,2-0.3,4-0.3,6c-0.1,2.1,0,4.3,0.2,6.4c0.6,4.8,2.2,9.8,5.4,13.6
		c1.5,1.8,2.6,3.8,3.6,6.2c-0.1,0-0.1,0.1-0.2,0.1c-0.8,0.2,2.2,8.5,7.1,11.8c0.7,0.5,1.3,0.8,1.8,0.9c0,0,0.1,0,0.1,0.1
		c1.3,0.5,3.1,1.1,4.1,1.3c1.1,0.2,1.4,0-0.8-1.4c-0.1,0-0.1-0.1-0.2-0.1c-0.5-0.3-1-0.7-1.4-1c0-0.2,0.1-0.4,0.1-0.6
		c0.1-1.4-0.4-3.1-1.1-3.3c-1.1,0-0.8-0.7-1.5-2c-0.7-1.3-1.5-0.8-1.6-2.1c-0.1-1.3-1.7-1.7-1.5-2.9c0.3-1.2-0.9-2.5-0.5-3.8
		c0.4-1.3,0.3-2.2-0.5-1.7c0,0-0.5,0.6-1.1,1.5c-1.5-2.8-3.6-5.3-4.9-8.2c-1.4-3.3-1.7-6.8-1.7-10.4c0-2.3,0.1-4.7,0.3-7
		c0.2-2.1,0.3-4.3,1.4-6.2c0.1-0.2,0.2-0.6,0.4-0.6c0.1,0,0.1,0,0.2-0.1c0.3-0.1,0.6-0.1,0.6-0.1s0.3-0.1,0.6-0.1c0.3,0,0.6,0,0.6,0
		s-0.2-0.2-0.4-0.5c-0.2-0.3-0.3-0.6-0.3-0.6s-0.1-0.2-0.2-0.4c0.2-0.2,0.3-0.5,0.5-0.7c0.2,0.1,0.4,0.1,0.4,0.1s0.3,0.1,0.6,0.2
		c0.3,0.1,0.6,0.3,0.6,0.3s-0.1-0.3-0.1-0.6c0-0.3,0-0.6,0-0.6s0-0.3,0-0.7c0-0.1,0-0.2,0-0.3c0.1-0.1,0.2-0.1,0.3-0.2
		c0.1,0.1,0.2,0.1,0.3,0.2c0.3,0.2,0.5,0.4,0.5,0.4s0.2,0.2,0.5,0.4c0.2,0.2,0.4,0.5,0.4,0.5s0.1-0.3,0.2-0.6
		c0.1-0.3,0.2-0.6,0.2-0.6s0.1-0.3,0.2-0.6c0.1-0.2,0.2-0.4,0.2-0.5c0,0,0,0,0,0c0.1,0.1,0.2,0.3,0.4,0.5c0.2,0.3,0.4,0.5,0.4,0.5
		s0.2,0.3,0.4,0.5c0.2,0.3,0.3,0.6,0.3,0.6s0.1-0.3,0.3-0.6c0.2-0.3,0.3-0.6,0.3-0.6s0.2-0.3,0.3-0.6c0-0.1,0.1-0.1,0.1-0.2
		c0.1,0,0.3,0.1,0.4,0.1c0,0.1,0.1,0.1,0.1,0.2c0.1,0.3,0.3,0.6,0.3,0.6s0.1,0.3,0.3,0.6c0.1,0.3,0.3,0.6,0.3,0.6s0.2-0.3,0.4-0.5
		c0.2-0.3,0.4-0.5,0.4-0.5s0.1-0.2,0.3-0.4c0.3,0.1,0.5,0.2,0.8,0.2c0.1,0.2,0.1,0.3,0.1,0.3s0.1,0.3,0.2,0.6
		c0.1,0.3,0.2,0.6,0.2,0.6s0.2-0.2,0.4-0.5c0.2-0.2,0.4-0.5,0.4-0.5l0.1-0.2c0.4,0.1,0.7,0.2,1.1,0.3l0,0.1l0.4,1.3l0.9-0.9l0.1-0.1
		c0.4,0.1,0.7,0.2,1.1,0.3l0,0.1l0.4,1.3l0.9-0.9l0.1-0.1c0.4,0.1,0.7,0.2,1.1,0.3l0.1,0.2l0.4,1.3l0.9-0.9l0.1-0.1
		c0.3,0.1,0.7,0.2,1,0.3l0.1,0.2l0.3,1.3l0.9-0.9l0.2-0.2c0.4,0.1,0.7,0.2,1.1,0.3l0.1,0.2c0,0,0.1,0.3,0.2,0.6c0,0.1,0,0.1,0,0.2
		c0,0.1,0,0.1,0,0.2c0,0.1,0,0.2,0,0.2l1-0.8l0.2-0.2c0.3,0.1,0.6,0.2,0.9,0.3l0.1,0.3l0.2,1.3l1-0.8l0.3-0.2
		c0.4,0.1,0.7,0.3,1.1,0.4C81.8,16.7,80.2,14.8,78.1,13.4z M32.7,24.4c-0.8,0-1.5-0.7-1.5-1.5c0-0.8,0.7-1.5,1.5-1.5
		c0.8,0,1.5,0.7,1.5,1.5C34.2,23.8,33.5,24.4,32.7,24.4z"/>
	<path class="st2" d="M56.6,63.2c-0.6-1.8-1.3-3.5-2-5.2c-1.5-3.3-3.4-6-5.8-8.7c-0.4-0.4-1.1-1.2-1.1-1.2L46.9,48l-0.2,0
		c-2.6-0.7-3.9-0.6-4.8,1.4c-2.2,4.5-4.7,3.9-8.9,3c-0.6-0.1-1.3-0.3-2-0.4c-0.8-0.2-1.4-0.1-1.7,0.1c-0.6,0.4-0.8,1.6-1,2.7
		c-0.2,1.2-0.4,2.4-1.4,3.1c-0.3,0.2-0.7,0.3-1.2,0.3c-0.2,0-0.4,0-0.6-0.1c-2.2-0.5-3.9-4.2-4.9-7.2c-0.3,0.2-0.6,0.4-0.9,0.7
		c-1.2,1.1-2.5,1.9-3.8,2.8c-0.6,0.3-1.1,0.7-1.7,1c-4.1,2.2-6,7.9-6.7,12.2c-0.1,0.5-0.1,1,0,1.4c0.2,0.7,1,1.1,1.7,1.2
		c1.3,0.2,2.9-0.3,4.2-0.6c2.3-0.5,4.7-1.4,7.1-1.4c3.2,0,6.3,1,9.5,1.2c3.4,0.2,6.9-0.1,10.3-0.1c2.5,0,5,0.1,7.4,0.3
		c2.3,0.2,4.8,0.9,7.1,0.7c1.4-0.2,3.5-0.9,3.9-2.5C58.8,66.1,57.1,64.6,56.6,63.2z"/>
	<path class="st2" d="M101.9,64c-1-3.4-2.3-6.8-4.2-9.8c-2.2-3.4-5-5.6-8.8-7.2c-1.1-0.5-1.3-1.2-1.9-2.2c-0.3-0.4-0.5-0.9-0.8-1.4
		c0,0-0.1-0.1-0.1-0.2c-0.5,0.4-1.1,0.7-1.8,0.7c-0.1,0-0.2,0-0.3,0c-3.6-0.3-8.4-6.9-9.8-9.2c-0.9-1.4-1.7-2.2-2.6-2.4
		c-1.2-0.3-2.7,0.6-4.2,1.6l-0.5,0.3c-1,0.6-1,0.7-1,1.2c0.1,0.8,0.2,2.1-1.3,4.4c-1.6,2.6-3.8,2.6-5.4,2.6c-0.5,0-1,0-1.4,0.1
		c0.6,1.3,1.6,3.3,1.7,3.3c0.4,0.7,0.4,2.3,0.7,3.2c0.7,3.1,1.6,5.5,4,7.7c1.7,1.6,2.8,3,3.5,5.3c0.5,1.8,1.1,4.2,2.8,5.3
		c1.5,1,2.9-0.1,4.5,0.3c0.5,0.1,0.9,0.4,1.2,0.7c3.3,2.2,7.4,1.9,11.2,1.8c4.2-0.1,8.3-0.1,12.5-0.2c0.9,0,1.7,0,2.5-0.5
		C104.6,68.2,102.4,65.5,101.9,64z"/>
</g>
</svg>
