<?xml version="1.0" encoding="utf-8"?>
<!-- Generator: Adobe Illustrator 24.0.1, SVG Export Plug-In . SVG Version: 6.00 Build 0)  -->
<svg version="1.1" id="Layer_1" xmlns="http://www.w3.org/2000/svg" xmlns:xlink="http://www.w3.org/1999/xlink" x="0px" y="0px"
	 viewBox="0 0 311 74.7" style="enable-background:new 0 0 311 74.7;" xml:space="preserve">
<style type="text/css">
	.st0{fill:#FFFFFF;}
</style>
<g id="LOGO" transform="translate(-6.015 -20.68)">
	<g id="Group_18" transform="translate(130.705 79.316)">
		<path id="Path_129" class="st0" d="M2.4,8.5V7c0-0.2,0-0.3-0.1-0.4C2.2,6.5,2,6.5,1.9,6.5H0.9c-1.1,0-1.7-0.5-1.7-1.6V3
			c0-1.1,0.6-1.6,1.7-1.6h1.3C3.4,1.3,4,1.9,4,3v0.9H2.4V3.1c0-0.2,0-0.3-0.1-0.4C2.1,2.6,2,2.6,1.8,2.6H1.4c-0.2,0-0.3,0-0.4,0.1
			C0.8,2.8,0.8,3,0.8,3.1v1.5c0,0.2,0,0.3,0.1,0.4c0.1,0.1,0.3,0.1,0.4,0.1h1C3.1,5.1,3.9,5.6,4,6.4c0,0.1,0,0.3,0,0.4v1.8
			c0,1.1-0.6,1.6-1.7,1.6H1c-1.1,0-1.7-0.5-1.7-1.6V7.8h1.6v0.7c0,0.2,0,0.3,0.1,0.4C1.1,9,1.3,9,1.4,9h0.4C2,9,2.2,9,2.3,8.9
			C2.4,8.8,2.4,8.6,2.4,8.5z"/>
		<path id="Path_130" class="st0" d="M10.7,1.3h1.7v9h-1.7V9.6c-0.2,0.5-0.6,0.8-1.1,0.7H8.9c-0.8,0.1-1.5-0.4-1.7-1.2
			c0-0.1,0-0.3,0-0.4V1.3h1.7v7.1c0,0.2,0,0.3,0.1,0.4c0.1,0.1,0.3,0.1,0.4,0.1h0.6c0.2,0,0.3,0,0.5-0.1c0.1-0.1,0.2-0.3,0.1-0.5
			L10.7,1.3L10.7,1.3z"/>
		<path id="Path_131" class="st0" d="M18.6,1.3h0.6c0.8-0.1,1.5,0.4,1.7,1.2c0,0.1,0,0.3,0,0.4v5.7c0.1,0.8-0.5,1.5-1.3,1.6
			c-0.1,0-0.3,0-0.4,0h-0.6c-0.5,0.1-1-0.2-1.1-0.7v3.3h-1.7V1.3h1.7V2C17.6,1.5,18.1,1.3,18.6,1.3z M19.3,8.4V3.2
			c0-0.2,0-0.3-0.1-0.4c-0.1-0.1-0.3-0.1-0.4-0.1h-0.6c-0.2,0-0.3,0-0.5,0.1c-0.1,0.1-0.2,0.3-0.1,0.5v5c0,0.2,0,0.4,0.1,0.5
			c0.1,0.1,0.3,0.2,0.5,0.1h0.6c0.2,0,0.3,0,0.4-0.1C19.3,8.7,19.3,8.6,19.3,8.4L19.3,8.4z"/>
		<path id="Path_132" class="st0" d="M27.1,1.3h0.6c0.8-0.1,1.5,0.4,1.7,1.2c0,0.1,0,0.3,0,0.4v5.7c0.1,0.8-0.5,1.5-1.3,1.6
			c-0.1,0-0.3,0-0.4,0h-0.6c-0.5,0.1-1-0.2-1.1-0.7v3.3h-1.7V1.3h1.7V2C26.1,1.5,26.6,1.3,27.1,1.3z M27.7,8.4V3.2
			c0-0.2,0-0.3-0.1-0.4c-0.1-0.1-0.3-0.1-0.4-0.1h-0.6c-0.2,0-0.3,0-0.5,0.1C26,3,25.9,3.1,25.9,3.3v5c0,0.2,0,0.4,0.1,0.5
			c0.1,0.1,0.3,0.2,0.5,0.1h0.6c0.2,0,0.3,0,0.4-0.1C27.7,8.7,27.8,8.6,27.7,8.4z"/>
		<path id="Path_133" class="st0" d="M34.3,1.3h2c1.1,0,1.7,0.5,1.7,1.6v5.7c0,1.1-0.6,1.6-1.7,1.6h-2c-1.1,0-1.7-0.5-1.7-1.6V2.9
			c-0.1-0.8,0.5-1.5,1.3-1.6C34.1,1.3,34.2,1.3,34.3,1.3z M36.4,8.4V3.2c0.1-0.2-0.1-0.5-0.3-0.6c-0.1,0-0.2,0-0.3,0h-1
			c-0.2,0-0.3,0-0.4,0.1c-0.1,0.1-0.1,0.3-0.1,0.4v5.3c0,0.2,0,0.3,0.1,0.4C34.5,9,34.7,9,34.8,9h1c0.2,0.1,0.5-0.1,0.6-0.3
			C36.4,8.6,36.4,8.5,36.4,8.4L36.4,8.4z"/>
		<path id="Path_134" class="st0" d="M44.5,1.3h0.4v1.4h-0.7c-0.8,0-1.2,0.5-1.2,1.4v6.2h-1.7v-9H43v1.1c0.1-0.3,0.3-0.6,0.5-0.8
			C43.8,1.4,44.1,1.3,44.5,1.3z"/>
		<path id="Path_135" class="st0" d="M50.6,2.7h-1.2v5.7c-0.1,0.2,0,0.5,0.3,0.5c0.1,0,0.2,0,0.3,0h0.7v1.4h-1.2
			c-1.2,0-1.7-0.5-1.7-1.6v-6h-0.8V1.3h0.8v-1.5h1.7v1.5h1.2L50.6,2.7L50.6,2.7z"/>
		<path id="Path_136" class="st0" d="M53.4-0.4V-2h1.7v1.6L53.4-0.4z M55.1,10.3h-1.7v-9h1.7V10.3z"/>
		<path id="Path_137" class="st0" d="M61.4,1.3H62c0.8-0.1,1.5,0.4,1.7,1.2c0,0.1,0,0.3,0,0.4v7.3H62V3.2c0-0.2,0-0.3-0.1-0.4
			c-0.1-0.1-0.3-0.1-0.4-0.1h-0.6c-0.2,0-0.3,0-0.5,0.1c-0.1,0.1-0.2,0.3-0.1,0.5v7h-1.6v-9h1.7V2C60.4,1.5,60.9,1.3,61.4,1.3z"/>
		<path id="Path_138" class="st0" d="M70.5,1.3h1.7v9.9c0,1.1-0.6,1.6-1.7,1.6h-3.1v-1.3h2.6c0.2,0,0.3,0,0.4-0.1
			c0.1-0.1,0.1-0.3,0.1-0.4V9.5c-0.2,0.5-0.6,0.8-1.1,0.7h-0.7C67.9,10.3,67.1,9.7,67,9c0-0.1,0-0.3,0-0.4V2.9
			c-0.1-0.8,0.4-1.5,1.2-1.6c0.1,0,0.3,0,0.4,0h0.7c0.5-0.1,1,0.2,1.1,0.7V1.3z M69.2,8.8h0.6c0.2,0,0.3,0,0.5-0.1
			c0.1-0.1,0.2-0.3,0.1-0.5V3.3c0-0.2,0-0.4-0.1-0.5c-0.1-0.1-0.3-0.2-0.5-0.1h-0.6c-0.2,0-0.3,0-0.4,0.1c-0.1,0.1-0.1,0.3-0.1,0.4
			v5.1c0,0.2,0,0.3,0.1,0.4C68.9,8.8,69.1,8.9,69.2,8.8L69.2,8.8z"/>
		<path id="Path_139" class="st0" d="M86.3,1.3H87c0.8-0.1,1.5,0.4,1.7,1.2c0,0.1,0,0.3,0,0.4v7.3H87V3.2c0.1-0.2,0-0.5-0.3-0.5
			c-0.1,0-0.2,0-0.3,0h-0.7c-0.4,0-0.6,0.2-0.6,0.6v7h-1.7V3.2c0-0.2,0-0.3-0.1-0.4c-0.1-0.1-0.3-0.1-0.4-0.1h-0.6
			c-0.2,0-0.3,0-0.5,0.1c-0.1,0.1-0.2,0.3-0.1,0.5v7h-1.7v-9h1.7V2c0.2-0.5,0.6-0.8,1.1-0.7h0.6c0.6-0.1,1.3,0.2,1.5,0.8
			C85.2,1.6,85.7,1.2,86.3,1.3z"/>
		<path id="Path_140" class="st0" d="M93.6,1.3h2c1.1,0,1.7,0.5,1.7,1.6v5.7c0,1.1-0.6,1.6-1.7,1.6h-2c-1.1,0-1.7-0.5-1.7-1.6V2.9
			c-0.1-0.8,0.5-1.5,1.3-1.6C93.3,1.3,93.5,1.3,93.6,1.3z M95.6,8.4V3.2c0.1-0.2-0.1-0.5-0.3-0.6c-0.1,0-0.2,0-0.3,0h-1
			c-0.2,0-0.3,0-0.4,0.1c-0.1,0.1-0.1,0.3-0.1,0.4v5.3c0,0.2,0,0.3,0.1,0.4C93.8,9,93.9,9,94.1,9h1c0.2,0.1,0.5-0.1,0.6-0.3
			C95.7,8.6,95.7,8.5,95.6,8.4L95.6,8.4z"/>
		<path id="Path_141" class="st0" d="M104.1,1.3h1.7v9h-1.7V9.6c-0.2,0.5-0.6,0.8-1.1,0.7h-0.7c-0.8,0.1-1.5-0.4-1.7-1.2
			c0-0.1,0-0.3,0-0.4V1.3h1.7v7.1c0,0.2,0,0.3,0.1,0.4c0.1,0.1,0.3,0.1,0.4,0.1h0.6c0.2,0,0.3,0,0.5-0.1c0.1-0.1,0.2-0.3,0.1-0.5
			L104.1,1.3L104.1,1.3z"/>
		<path id="Path_142" class="st0" d="M112,1.3h0.6c0.8-0.1,1.5,0.4,1.7,1.2c0,0.1,0,0.3,0,0.4v7.3h-1.7V3.2c0-0.2,0-0.3-0.1-0.4
			c-0.1-0.1-0.3-0.1-0.4-0.1h-0.6c-0.2,0-0.3,0-0.5,0.1c-0.1,0.1-0.2,0.3-0.1,0.5v7h-1.6v-9h1.7V2C111,1.5,111.5,1.3,112,1.3z"/>
		<path id="Path_143" class="st0" d="M120.8,2.7h-1.2v5.7c-0.1,0.2,0,0.5,0.3,0.5c0.1,0,0.2,0,0.3,0h0.7v1.4h-1.2
			c-1.2,0-1.7-0.5-1.7-1.6v-6H117V1.3h0.8v-1.5h1.7v1.5h1.2L120.8,2.7L120.8,2.7z"/>
		<path id="Path_144" class="st0" d="M126.9,1.3h1.7v9h-1.7V9.6c-0.2,0.5-0.6,0.8-1.1,0.7h-0.7c-0.8,0.1-1.5-0.4-1.7-1.2
			c0-0.1,0-0.3,0-0.4V2.9c-0.1-0.8,0.4-1.5,1.2-1.6c0.1,0,0.3,0,0.4,0h0.7c0.5-0.1,1,0.2,1.1,0.7V1.3z M125.7,8.9h0.6
			c0.2,0,0.3,0,0.5-0.1c0.1-0.1,0.2-0.3,0.1-0.5v-5c0-0.2,0-0.4-0.1-0.5c-0.1-0.1-0.3-0.2-0.5-0.1h-0.6c-0.2,0-0.3,0-0.4,0.1
			c-0.1,0.1-0.1,0.3-0.1,0.4v5.2c0,0.2,0,0.3,0.1,0.4C125.4,8.9,125.5,9,125.7,8.9L125.7,8.9z"/>
		<path id="Path_145" class="st0" d="M132-0.4V-2h1.7v1.6L132-0.4z M133.7,10.3H132v-9h1.7L133.7,10.3z"/>
		<path id="Path_146" class="st0" d="M139.9,1.3h0.6c0.8-0.1,1.5,0.4,1.7,1.2c0,0.1,0,0.3,0,0.4v7.3h-1.7V3.2c0-0.2,0-0.3-0.1-0.4
			c-0.1-0.1-0.3-0.1-0.4-0.1h-0.6c-0.2,0-0.3,0-0.5,0.1c-0.1,0.1-0.2,0.3-0.1,0.5v7h-1.6v-9h1.7V2C139,1.5,139.4,1.3,139.9,1.3z"/>
		<path id="Path_147" class="st0" d="M151.9,10.3h-1.7V-2h1.7L151.9,10.3z"/>
		<path id="Path_148" class="st0" d="M155.3-0.4V-2h1.7v1.6L155.3-0.4z M157,10.3h-1.7v-9h1.7V10.3z"/>
		<path id="Path_149" class="st0" d="M163.6-0.6h-0.8c-0.2,0-0.3,0-0.4,0.1c-0.1,0.1-0.1,0.3-0.1,0.4v1.4h1.3v1.3h-1.3v7.6h-1.7V2.6
			h-0.9V1.3h0.9v-1.7c0-1.1,0.6-1.6,1.7-1.6h1.3L163.6-0.6L163.6-0.6z"/>
		<path id="Path_150" class="st0" d="M168,1.3h1.8c1.2,0,1.7,0.5,1.7,1.6v3.4h-3.6v2.1c0,0.1,0,0.3,0.1,0.4c0.1,0.1,0.3,0.1,0.4,0.1
			h0.8c0.2,0.1,0.5-0.1,0.6-0.3c0-0.1,0-0.2,0-0.3V7.7h1.6v1c0,1.1-0.6,1.6-1.7,1.6H168c-1.1,0-1.7-0.5-1.7-1.6V2.9
			c-0.1-0.8,0.5-1.6,1.3-1.6C167.8,1.3,167.9,1.3,168,1.3z M167.9,5.1h2V3.2c0-0.1,0-0.3-0.1-0.4c-0.1-0.1-0.3-0.1-0.4-0.1h-0.9
			c-0.2,0-0.3,0-0.4,0.1c-0.1,0.1-0.1,0.3-0.1,0.4L167.9,5.1L167.9,5.1z"/>
	</g>
	<g id="Group_19" transform="translate(129.97 54.913)">
		<path id="Path_151" class="st0" d="M0.5,18.4V3h-1.2l-0.1-1.2l2-1.8H4v18.4L0.5,18.4z"/>
		<path id="Path_152" class="st0" d="M11.7,18.4v-4.6H6v-2.9L10.4,0h4.5v10.8h2v3h-2v4.6L11.7,18.4z M9.3,10.8h2.4l0.5-4.2L12.5,3
			h-0.6l-1.1,3.5L9.3,10.8z"/>
		<path id="Path_153" class="st0" d="M24.7,18.4V0h4.4c1.3-0.1,2.7,0.3,3.7,1c0.9,0.9,1.3,2.2,1.2,3.4c0,0.6,0,1.2,0,1.8
			s0,1.2,0,1.8c0.1,1.3-0.4,2.5-1.2,3.4c-1.1,0.8-2.4,1.2-3.7,1h-1v5.9L24.7,18.4L24.7,18.4z M28.2,9.5h1c0.9,0,1.5-0.4,1.5-1.3
			c0-0.6,0-1.2,0-2s0-1.4,0-2c0-0.8-0.5-1.3-1.5-1.3h-1V9.5z"/>
		<path id="Path_154" class="st0" d="M36,18.4V0h8v3h-4.5v4.5h4.3v3h-4.3v4.8H44v3L36,18.4z"/>
		<path id="Path_155" class="st0" d="M45.3,18.4L47.9,0h5.4l2.6,18.4h-3.6l-0.4-3.8h-2.7l-0.4,3.8H45.3z M49.6,11.5h2l-0.4-4.1
			L50.9,3h-0.6L50,7.4L49.6,11.5z"/>
		<path id="Path_156" class="st0" d="M57.3,18.4V0H61l0,4.5l-0.6,4.1h0.6L62,4.4L63.7,0h3.8l-3.1,7.6l3.2,10.8h-3.5l-2-7l-1.3,2.8
			v4.2C60.8,18.4,57.3,18.4,57.3,18.4z"/>
		<path id="Path_157" class="st0" d="M75,18.4V0h8v3h-4.5v4.5h4.3v3h-4.3v4.8h4.5v3L75,18.4z"/>
		<path id="Path_158" class="st0" d="M84.3,18.4l2.9-9.6L84.4,0h3.4L89,4.3l0.3,3.1h0.5L90,4.3L91.2,0h3.4l-2.7,9l2.7,9.5h-3.4
			L90,13.9l-0.3-3.4h-0.5L89,13.9l-1.3,4.5H84.3z"/>
		<path id="Path_159" class="st0" d="M96.5,18.4V0h4.4c1.3-0.1,2.7,0.3,3.7,1c0.9,0.9,1.3,2.2,1.2,3.4c0,0.6,0,1.2,0,1.8
			s0,1.2,0,1.8c0.1,1.3-0.4,2.5-1.2,3.4c-1.1,0.8-2.4,1.2-3.7,1h-1v5.9L96.5,18.4L96.5,18.4z M99.9,9.5h1c0.9,0,1.5-0.4,1.5-1.3
			c0-0.6,0-1.2,0-2s0-1.4,0-2c0-0.8-0.5-1.3-1.5-1.3h-1V9.5z"/>
		<path id="Path_160" class="st0" d="M107.8,18.4V0h8v3h-4.5v4.5h4.3v3h-4.3v4.8h4.5v3L107.8,18.4z"/>
		<path id="Path_161" class="st0" d="M117.3,18.4V0h4.7c1.3-0.1,2.7,0.3,3.8,1.1c0.9,1,1.3,2.3,1.2,3.6c0,1.1,0,2.1,0.1,3
			c0,1,0,1.9,0,2.9s0,2-0.1,3.1c0.1,1.3-0.3,2.6-1.2,3.6c-1.1,0.8-2.4,1.2-3.8,1.1L117.3,18.4L117.3,18.4z M120.8,15.4h1.2
			c1,0,1.5-0.4,1.5-1.3c0.1-3.3,0.1-6.5,0-9.8c0-0.8-0.5-1.3-1.5-1.3h-1.2V15.4z"/>
		<path id="Path_162" class="st0" d="M128.9,18.4V0h3.5v18.4L128.9,18.4z"/>
		<path id="Path_163" class="st0" d="M136.9,18.4V3h-3V0h9.4v3h-3v15.4H136.9z"/>
		<path id="Path_164" class="st0" d="M144.7,18.4V0h3.5v18.4L144.7,18.4z"/>
		<path id="Path_165" class="st0" d="M155.1,18.6c-1.3,0.1-2.6-0.3-3.7-1.1c-0.9-1-1.3-2.3-1.2-3.6c0-1.5,0-3.1,0-4.8
			c0-1.7,0-3.3,0-4.8c-0.1-1.3,0.3-2.6,1.2-3.5c1-0.8,2.4-1.2,3.7-1.1c1.3-0.1,2.6,0.3,3.6,1.1c0.8,1,1.3,2.2,1.2,3.5
			c0.1,1.5,0.1,3.1,0.1,4.8s0,3.3-0.1,4.8c0.1,1.3-0.4,2.6-1.2,3.6C157.7,18.4,156.4,18.8,155.1,18.6z M155.1,15.8
			c0.9,0,1.4-0.4,1.4-1.2c0-0.8,0.1-1.6,0.1-2.6c0-0.9,0-1.9,0-2.9s0-2,0-2.9c0-0.9,0-1.8-0.1-2.6s-0.5-1.2-1.4-1.2
			c-0.9,0-1.4,0.4-1.4,1.2c0,0.8-0.1,1.6-0.1,2.6c0,0.9,0,1.9,0,2.9s0,2,0,2.9s0,1.8,0.1,2.6C153.7,15.4,154.2,15.8,155.1,15.8
			L155.1,15.8z"/>
		<path id="Path_166" class="st0" d="M161.9,18.4V0h5l1.4,5.9l1.3,9.5h0.6l-0.6-7.5L169.2,0h3.3v18.4h-5.3l-1.4-6L165,3h-0.6
			l0.6,8.3l0.3,7.1L161.9,18.4L161.9,18.4z"/>
	</g>
	<path id="Path_167" class="st0" d="M71.8,35.9c1,0,2.7,1.1,4,1.9c0.7,0.5,1.4,0.9,2,1.2c1.5,0.9,2.9,1.9,4.3,3
		c3,2.3,6.7,5.2,9.9,6.3c4.6,1.6,6.4,4.3,7.1,10.6c0.1,0.6,0.2,1.1,0.4,1.7c-0.1,0-0.1,0-0.2,0h-0.1c-2.1-0.2-6.3-4.8-8.8-8.9
		c-1.3-2.2-2.7-3.4-4.4-3.8c-0.4-0.1-0.7-0.1-1.1-0.1c-1.9,0-3.7,1.1-5.4,2.2l-0.6,0.4c-2,1.3-2.4,2.2-2.3,3.6
		c0.1,0.7,0.1,1.5-1,3.4c-1.1,1.7-2.3,1.7-3.9,1.7c-0.8,0-1.6,0.1-2.3,0.2c-1.4-1.5-2.5-2.6-2.7-4.7c-0.1-0.7-0.1-1.4-0.2-2.2
		c-0.2-2-0.4-4.1-0.3-6.1c0-2.8,1.9-5.4,3.2-7.3c0.6-0.7,1-1.5,1.4-2.3C71.1,36,71.5,35.9,71.8,35.9L71.8,35.9 M71.8,35.2
		c-0.8,0-1.4,0.5-1.6,1.3c-0.5,1.6-4.6,5.4-4.7,9.8c0,2.8,0.3,5.5,0.5,8.3c0.2,2.4,1.6,3.8,3.2,5.4l0.3-0.1c0.7-0.2,1.5-0.3,2.2-0.2
		c1.6,0,3.2,0,4.4-2c1.3-2,1.2-3,1.1-3.8c-0.1-1.2,0.1-1.9,1.9-3l0.6-0.4c1.7-1.1,3.4-2.1,5.1-2.1c0.3,0,0.6,0,1,0.1
		c1.4,0.3,2.7,1.5,3.9,3.5c2.3,3.7,6.7,9,9.3,9.2c0,0,0.1,0,0.1,0c0.4,0,0.7-0.2,0.9-0.4l0.1-0.1c-0.2-0.6-0.4-1.3-0.6-1.9
		c-0.7-6.5-2.5-9.5-7.5-11.2c-5-1.7-11.3-7.8-14.1-9.3C76.4,37.6,73.6,35.2,71.8,35.2L71.8,35.2z"/>
	<path id="Path_168" class="st0" d="M53.8,49.5c0.2,0,0.2,0.1,0.3,0.1c0.6,2,0.9,4,0.8,6.1c0,1.4,0.1,2.7,0.3,4.1
		c0.3,1.7,0.8,3.4,1.4,4.9c-0.4-0.1-0.8-0.1-1.2-0.1c-2.2-0.1-4.2,1.3-5,3.3c-1.1,2.2-1.8,2.6-3,2.6c-1.3-0.1-2.6-0.3-3.9-0.7
		c-0.7-0.2-1.4-0.3-2.2-0.5c-0.5-0.1-1-0.2-1.4-0.2c-0.8,0-1.7,0.2-2.4,0.7c-1.5,1.1-1.9,3-2.2,4.6c-0.1,0.6-0.2,1.1-0.4,1.7
		c0,0,0,0,0,0c-0.6-0.1-2.2-2-3.6-6.3c0.4-0.4,0.7-1,0.8-1.5c0.5-4.5,2.5-7.2,6.3-8.4c1.7-0.4,3.1-1.4,4.2-2.8
		c0.4-0.6,0.9-1.1,1.6-1.4c1.1-0.6,2.1-1.3,3-2.1C49.1,52,52.4,49.5,53.8,49.5 M53.8,48.9c-2.4,0-8.6,5.5-10.2,6.2
		c-2.3,1-1.6,2.9-5.7,4.2c-4,1.3-6.2,4.2-6.7,9c-0.1,0.6-0.4,1.1-0.9,1.4l0.1,0.2c1.3,4,2.9,6.8,4.2,7c0.1,0,0.2,0,0.3,0
		c0.1,0,0.2,0,0.3-0.1c0.4-0.3,0.6-1.2,0.7-2.2c0.3-1.5,0.6-3.2,1.9-4.1c0.6-0.4,1.3-0.6,2-0.6c0.4,0,0.9,0.1,1.3,0.1
		c0.8,0.2,1.5,0.3,2.2,0.5c1.3,0.4,2.7,0.6,4.1,0.7c1.6,0,2.6-0.7,3.7-3c0.7-1.8,2.5-3,4.4-2.9c0.8,0,1.6,0.1,2.4,0.3
		c-1-1.9-1.6-3.9-2-6c-0.5-3.3,0-7.2-1.2-10.4C54.6,49.1,54.2,48.8,53.8,48.9L53.8,48.9z"/>
	<path id="Path_169" class="st0" d="M70.2,23.7c4.2,0,8.5,1.5,12.6,2.8l0.9,0.3l0.5,0.2c2.7,0.8,5.3,1.9,7.8,3.3
		c1.7,1.1,3.2,2.6,4.5,4.2l0,0l-0.3,0.3L95.9,35l0-0.2l-0.1-0.3L95.7,34l-0.4-0.1c-0.3-0.1-0.7-0.2-1-0.3L94,33.5l-0.3,0.2l-0.2,0.2
		L93.3,34l-0.1-0.3l-0.1-0.2l-0.1-0.4l-0.4-0.1L92.4,33c-0.3-0.1-0.6-0.2-0.9-0.2l-0.4-0.1l-0.3,0.3l-0.2,0.2l-0.2,0.2L90.4,33
		l-0.1-0.2l-0.1-0.4l-0.4-0.1l-0.4-0.1L88.7,32L88.3,32l-0.3,0.3l-0.2,0.2l-0.2,0.2l-0.1-0.2l0-0.2l-0.1-0.4l-0.4-0.1l-0.5-0.1
		l-0.7-0.2l-0.4-0.1l-0.3,0.3l-0.1,0.1L85,31.9l-0.1-0.2l0-0.2l-0.1-0.4L84.4,31c-0.3-0.1-0.5-0.1-0.8-0.2l-0.4-0.1l-0.4-0.1
		l-0.3,0.3L82.4,31l-0.2,0.2l-0.1-0.3l0-0.2L82,30.4l-0.4-0.1c-0.3-0.1-0.7-0.2-1-0.3l-0.2,0L80,29.9l-0.3,0.3l-0.2,0.2l-0.2,0.2
		l-0.1-0.2l-0.1-0.4L79,29.6l-0.3-0.1l-0.1,0l-0.8-0.2l-0.4-0.1l-0.3,0.4l-0.3,0.4l-0.2,0.2l-0.1-0.2l-0.3-0.7L76.1,29l-0.2-0.3
		l-0.3-0.1c-0.2,0-0.3-0.1-0.5-0.1l-0.4-0.1l-0.3,0.4l-0.2,0.3l-0.4,0.6L73.7,30c-0.1-0.1-0.1-0.2-0.1-0.2l0,0c0,0-0.2-0.3-0.4-0.6
		c-0.2-0.2-0.3-0.4-0.4-0.5l-0.3-0.3l-0.4,0l-0.4,0l-0.2,0.4c0,0.1-0.2,0.4-0.3,0.6c-0.1,0.3-0.3,0.7-0.3,0.7s0,0.1-0.1,0.3
		c-0.1-0.1-0.2-0.2-0.2-0.2c-0.2-0.2-0.4-0.3-0.6-0.5c-0.1-0.1-0.3-0.2-0.4-0.3l-0.4-0.3l-0.4,0.3c-0.1,0.1-0.2,0.2-0.4,0.3
		l-0.2,0.2l0,0.3c0,0.1,0,0.2,0,0.3c0,0.4,0,0.8,0,0.8c0,0,0,0.1,0,0.3c-0.2,0-0.3-0.1-0.3-0.1c0,0-0.2-0.1-0.5-0.1L67,31.3
		l-0.3,0.3c-0.2,0.3-0.4,0.5-0.6,0.8l-0.2,0.3l0.2,0.4c0.1,0.2,0.2,0.4,0.2,0.4s0.1,0.1,0.1,0.3c-0.2,0-0.3,0-0.3,0
		s-0.4,0.1-0.8,0.2c-0.1,0-0.2,0-0.3,0.1c-0.4,0.1-0.7,0.5-0.8,0.9c0,0,0,0.1,0,0.1c-1.2,1.9-1.3,4-1.5,6.1c0,0.3-0.1,0.6-0.1,0.9
		c-0.3,2.6-0.4,5.2-0.4,7.8c-0.1,4,0.5,8,1.9,11.7c0.9,2,2,3.8,3.2,5.6c0.7,1.1,1.5,2.3,2.2,3.5l0.5,0.9l0.6-0.8
		c0.2-0.3,0.5-0.6,0.6-0.9c0,0.2-0.1,0.3-0.1,0.6c-0.2,0.9-0.1,1.8,0.3,2.6c0.2,0.5,0.3,1,0.3,1.6c-0.1,0.9,0.2,1.7,0.9,2.3
		c0.4,0.3,0.6,0.7,0.7,1.2c0,0.7,0.4,1.4,1,1.7c0.3,0.2,0.6,0.5,0.8,0.9c0.2,0.3,0.3,0.7,0.4,1.1c0.2,0.7,0.5,1.4,1.6,1.5
		c0.6,0.9,0.8,1.9,0.7,2.9c0,0.2,0,0.3-0.1,0.5L77.7,87l0.4,0.3c0.5,0.4,1,0.8,1.6,1.1c-0.9-0.3-2-0.6-2.8-0.9l-0.1,0l-0.1,0l-0.1,0
		c-0.6-0.2-1.2-0.4-1.7-0.8c-4.6-3.2-7.5-10.4-7.6-11.9l0.5-0.3l-0.2-0.5c-1-2.5-2.3-4.9-4-7c-3.9-4.7-5.3-10.5-5.8-14.5
		c-0.2-2.3-0.3-4.6-0.2-6.9c0-0.9,0.1-1.9,0.2-2.9c0.1-1.2,0.2-2.5,0.2-3.7c0-0.2,0-0.4,0-0.7c-0.3-1-1.8-1.5-2.3-1.6
		c-0.4-0.1-0.8-0.1-1.2-0.1c-0.5,0-1,0-1.4,0.1c-2.3,0.5-4.5,1.7-6,3.5l-0.4,0.4c-1.2,1.3-2.5,2.7-4.2,2.7c-0.2,0-0.3,0-0.5,0
		c-0.8-0.1-1.5-0.6-1.9-1.3c-0.5-0.7-0.6-1.6-0.4-2.4c0.3-1.2,1.3-2.1,2.7-2.9c3.9-2.5,8.1-4.7,12.2-6.9c0.7-0.4,1.5-0.8,2.2-1.2
		c2.9-1.6,6.1-3.5,9.6-4.4C67.5,23.8,68.9,23.6,70.2,23.7 M42.5,42.5c1.3,0,2.3-1,2.3-2.3c0-1.3-1-2.3-2.3-2.3c-1.3,0-2.3,1-2.3,2.3
		C40.2,41.5,41.3,42.5,42.5,42.5 M70.2,23c-1.4,0-2.8,0.2-4.2,0.5c-3.5,0.9-6.7,2.7-9.8,4.4c-4.8,2.6-9.8,5.1-14.4,8.1
		c-1.4,0.7-2.4,1.9-3,3.3c-0.5,1.9,0.6,3.9,2.5,4.4c0.3,0.1,0.7,0.1,1,0.1c2.2,0,3.7-1.8,5.1-3.3c1.5-1.7,3.5-2.9,5.6-3.3
		c0.4-0.1,0.9-0.1,1.3-0.1c0.4,0,0.7,0,1.1,0.1c0.5,0.1,1.6,0.5,1.8,1.1c0,0.1,0,0.3,0,0.4c0,2.2-0.3,4.4-0.4,6.6
		c-0.1,2.3,0,4.7,0.2,7c0.6,5.3,2.4,10.8,5.9,14.9c1.7,2,3,4.3,3.9,6.8c-0.1,0-0.1,0.1-0.2,0.1c-0.9,0.2,2.5,9.3,7.8,13
		c0.6,0.4,1.2,0.8,1.9,0.9c0,0,0.1,0,0.1,0.1c1.5,0.6,2.9,1,4.5,1.4c0.2,0,0.4,0.1,0.6,0.1c0.6,0,0.4-0.4-1.5-1.6
		c-0.1,0-0.2-0.1-0.2-0.2c-0.6-0.4-1.1-0.7-1.5-1.1c0.1-0.2,0.1-0.4,0.1-0.6c0.1-1.5-0.4-3.4-1.2-3.6c-1.2,0-0.9-0.8-1.6-2.2
		c-0.7-1.4-1.6-0.9-1.7-2.3s-1.9-1.9-1.6-3.2c0.3-1.3-1-2.8-0.5-4.2c0.3-1.2,0.3-2-0.2-2c-0.1,0-0.3,0-0.4,0.1c0,0-0.5,0.7-1.2,1.6
		c-1.7-3.1-4-5.8-5.3-9c-1.4-3.6-2-7.5-1.9-11.4c0-2.6,0.1-5.1,0.4-7.7c0.2-2.3,0.3-4.8,1.5-6.8c0.1-0.2,0.2-0.6,0.4-0.7
		c0.1,0,0.2,0,0.2-0.1c0.4-0.1,0.7-0.2,0.7-0.2s0.4-0.1,0.7-0.1c0.3,0,0.5,0,0.6,0h0.1c-0.1-0.2-0.3-0.4-0.4-0.6
		c-0.2-0.3-0.4-0.6-0.4-0.6s-0.1-0.2-0.2-0.4c0.2-0.3,0.4-0.5,0.6-0.8c0.3,0.1,0.5,0.1,0.5,0.1c0.2,0.1,0.5,0.1,0.7,0.2
		c0.2,0.1,0.4,0.2,0.6,0.3c0,0-0.1-0.3-0.1-0.7c0-0.2,0-0.5,0-0.7c0,0,0-0.4,0-0.7c0-0.1,0-0.2,0-0.3c0.1-0.1,0.2-0.2,0.3-0.2
		c0.1,0.1,0.2,0.2,0.3,0.2c0.3,0.2,0.6,0.5,0.6,0.5s0.3,0.2,0.5,0.5c0.2,0.3,0.5,0.5,0.5,0.5s0.1-0.3,0.2-0.7
		c0.1-0.3,0.2-0.7,0.2-0.7s0.1-0.3,0.3-0.7c0.1-0.2,0.2-0.5,0.3-0.6h0c0.1,0.1,0.2,0.3,0.4,0.5c0.2,0.3,0.4,0.6,0.4,0.6
		s0.2,0.3,0.4,0.6s0.4,0.6,0.4,0.6s0.2-0.3,0.3-0.6c0.2-0.3,0.4-0.6,0.4-0.6s0.2-0.3,0.4-0.6c0.1-0.1,0.1-0.2,0.2-0.2
		c0.2,0,0.3,0.1,0.5,0.1c0,0.1,0.1,0.1,0.1,0.2c0.2,0.3,0.3,0.6,0.3,0.6s0.2,0.3,0.3,0.6c0.1,0.3,0.3,0.7,0.3,0.7s0.2-0.3,0.4-0.6
		c0.2-0.3,0.4-0.6,0.4-0.6s0.2-0.2,0.3-0.4c0.3,0.1,0.6,0.2,0.9,0.3c0.1,0.2,0.1,0.4,0.1,0.4s0.1,0.3,0.2,0.7
		c0.1,0.3,0.2,0.7,0.2,0.7l0.5-0.5l0.5-0.5l0.2-0.2c0.4,0.1,0.8,0.2,1.2,0.3l0,0.2l0.4,1.4l1-1l0.1-0.1c0.4,0.1,0.8,0.2,1.2,0.3
		l0,0.2l0.4,1.4l1-1l0.1-0.1l1.2,0.3l0.1,0.2l0.4,1.4l1-1l0.2-0.2c0.4,0.1,0.7,0.2,1.1,0.3l0.1,0.2l0.4,1.4l1-1l0.2-0.2
		c0.4,0.1,0.8,0.2,1.2,0.3l0.1,0.2c0,0,0.1,0.3,0.2,0.7c0,0.1,0,0.2,0,0.2c0,0.1,0,0.2,0,0.2c0,0.1,0,0.2,0,0.2l1.1-0.9l0.2-0.2
		c0.3,0.1,0.7,0.2,1,0.3l0.1,0.3l0.3,1.4l1.1-0.9l0.3-0.3c0.4,0.1,0.8,0.3,1.2,0.4c-1.5-2.3-3.5-4.3-5.7-5.8
		c-2.7-1.5-5.5-2.7-8.4-3.6C79.4,24.6,74.9,23,70.2,23L70.2,23z M42.5,41.8c-0.9,0-1.6-0.7-1.6-1.6c0-0.9,0.7-1.6,1.6-1.6
		c0.9,0,1.6,0.7,1.6,1.6C44.1,41.1,43.4,41.8,42.5,41.8C42.5,41.8,42.5,41.8,42.5,41.8z"/>
	<path id="Path_170" class="st0" d="M55.4,67.9c0.8,0,1.6,0.2,2.4,0.4l0.2,0.1l0.1,0l0.1,0l0.6,0c0.3,0.3,0.7,0.8,1,1.2
		c2.6,2.7,4.7,5.9,6.2,9.3c0.7,1.6,1.4,3.4,2.2,5.6c0.2,0.6,0.6,1.2,0.9,1.7c0.6,1,1.2,1.9,1,2.8c-0.3,1.4-2.4,2.1-3.7,2.2
		c-0.4,0-0.7,0.1-1.1,0.1c-1.3,0-2.6-0.2-3.9-0.4c-0.9-0.1-1.7-0.3-2.6-0.4c-2.9-0.3-5.8-0.3-8.2-0.4c-0.3,0-0.6,0-1,0
		c-1.3,0-2.5,0-3.8,0.1c-1.2,0-2.5,0.1-3.7,0.1c-1,0-1.9,0-2.8-0.1c-1.5-0.1-3.1-0.3-4.6-0.6c-1.9-0.4-3.9-0.6-5.9-0.7l0,0
		c-2,0.1-4,0.4-5.9,1c-0.7,0.2-1.4,0.4-2,0.5c-0.3,0.1-0.5,0.1-0.8,0.2c-0.9,0.3-1.9,0.4-2.9,0.5c-0.2,0-0.4,0-0.6,0
		c-0.6,0-1.1-0.4-1.3-0.9c-0.1-0.4-0.1-0.8,0-1.2c0.4-2.3,1.9-10.2,7-12.9c0.7-0.4,1.3-0.7,1.9-1.1c1.5-0.9,2.9-1.9,4.3-3.1
		c0.1,0,0.1-0.1,0.2-0.1c1.6,4.5,3.5,7,5.6,7.5c0.3,0.1,0.5,0.1,0.8,0.1c0.6,0,1.2-0.2,1.7-0.5c1.3-0.9,1.6-2.4,1.8-3.8
		c0.2-0.9,0.4-2.2,0.8-2.5c0.2-0.1,0.4-0.1,0.6-0.1c0.3,0,0.5,0,0.8,0.1c0.8,0.2,1.5,0.3,2.2,0.5c1.5,0.4,3.1,0.7,4.6,0.7
		c2.6,0,4.4-1.3,5.9-4.4C53.9,68.2,54.5,67.9,55.4,67.9 M55.4,67.2c-1.3,0-2.4,0.8-2.8,1.9c-1.5,3.1-3.1,4-5.3,4
		c-1.5-0.1-3-0.3-4.5-0.7c-0.7-0.2-1.4-0.3-2.2-0.5c-0.3-0.1-0.6-0.1-0.9-0.1c-0.3,0-0.7,0.1-1,0.2c-0.7,0.5-0.9,1.8-1.1,2.9
		c-0.2,1.3-0.5,2.7-1.5,3.4c-0.4,0.3-0.8,0.4-1.3,0.4c-0.2,0-0.4,0-0.6-0.1c-2.5-0.6-4.3-4.6-5.4-7.9c-0.3,0.2-0.7,0.5-1,0.7
		c-1.3,1.1-2.7,2.2-4.2,3c-0.6,0.4-1.2,0.7-1.9,1.1c-4.5,2.4-6.6,8.7-7.3,13.4c-0.1,0.5-0.1,1,0,1.6c0.3,0.7,1,1.2,1.8,1.3
		c0.2,0,0.5,0.1,0.7,0.1c1.3-0.1,2.6-0.3,3.8-0.7c2.5-0.6,5.1-1.5,7.8-1.5c3.5,0,6.9,1.1,10.4,1.3c0.9,0.1,1.9,0.1,2.8,0.1
		c2.5,0,5-0.1,7.5-0.1c0.3,0,0.6,0,0.9,0c2.7,0,5.4,0.1,8.2,0.4c2.2,0.2,4.4,0.8,6.6,0.8c0.4,0,0.8,0,1.2-0.1c1.6-0.2,3.9-1,4.3-2.8
		c0.4-1.8-1.4-3.4-1.9-4.9c-0.7-1.9-1.4-3.8-2.2-5.7c-1.6-3.5-3.7-6.7-6.3-9.5c-0.4-0.5-1.2-1.4-1.2-1.4l-0.9-0.1l-0.2-0.1
		C57.1,67.4,56.3,67.3,55.4,67.2L55.4,67.2z"/>
	<path id="Path_171" class="st0" d="M85,51c0.1,0,0.2,0,0.4,0c0.7,0.2,1.5,1,2.4,2.4c0.1,0.1,6.2,10,11.2,10.4c0.1,0,0.2,0,0.3,0
		c0.6,0,1.2-0.1,1.7-0.4c0.2,0.3,0.4,0.7,0.6,1.1c0.2,0.3,0.3,0.5,0.4,0.7c0.4,0.9,1.1,1.6,2,2c3.8,1.5,7.1,4.2,9.3,7.6
		c2,3.3,3.5,6.9,4.6,10.6c0.2,0.5,0.4,1,0.7,1.5c1,2,1.3,3.1,0.2,3.7c-0.7,0.3-1.6,0.5-2.4,0.4c-4.6,0.1-9.2,0.2-13.7,0.2l-1.2,0
		c-0.8,0-1.5,0-2.3,0c-2.9,0-5.9-0.2-8.4-1.9l-0.2-0.1c-0.4-0.3-0.9-0.6-1.4-0.7c-0.4-0.1-0.7-0.1-1.1-0.1c-0.4,0-0.9,0.1-1.3,0.1
		c-0.4,0.1-0.7,0.1-1.1,0.1c-0.4,0-0.9-0.1-1.3-0.4c-1.5-1-2.1-3.1-2.6-4.9l-0.2-0.6c-0.7-2.4-2.1-4.5-4-6.1
		c-2.4-2.3-3.4-4.8-4.2-8.1c-0.1-0.3-0.1-0.8-0.2-1.2c-0.1-0.8-0.3-1.7-0.6-2.4c0,0-0.6-1.2-1.2-2.4l-0.2-0.4c0.2,0,0.3,0,0.5,0
		c1.8,0,4.5,0,6.5-3.2c1.7-2.7,1.6-4.3,1.5-5.3c0-0.1,0-0.1,0-0.2c0.2-0.2,0.5-0.4,0.8-0.5l0.6-0.4C82.6,51.9,83.9,51,85,51L85,51
		 M85,50.3c-1.2,0-2.6,0.9-4.1,1.8l-0.6,0.4c-1.1,0.7-1.1,0.8-1.1,1.3c0.1,0.9,0.2,2.4-1.4,4.9c-1.8,2.9-4.2,2.9-6,2.9
		c-0.5,0-1,0-1.5,0.1c0.7,1.4,1.8,3.6,1.8,3.7c0.3,1.1,0.6,2.3,0.7,3.5c0.8,3.4,1.8,6,4.4,8.4c1.8,1.5,3.2,3.5,3.8,5.8
		c0.6,2,1.2,4.6,3.1,5.8c0.5,0.3,1.1,0.5,1.6,0.5c0.8,0,1.6-0.2,2.4-0.2c0.3,0,0.6,0,0.9,0.1c0.5,0.2,1,0.4,1.4,0.8
		c2.6,1.7,5.7,2,8.8,2c1.2,0,2.4,0,3.5-0.1c4.6-0.1,9.2-0.2,13.7-0.2c0.9,0.1,1.9-0.1,2.7-0.5c2.3-1.4-0.1-4.3-0.6-6
		c-1-3.8-2.6-7.4-4.6-10.8c-2.3-3.6-5.7-6.3-9.6-7.9c-1.2-0.5-1.4-1.3-2.1-2.5c-0.3-0.5-0.6-1-0.8-1.5c0-0.1-0.1-0.1-0.1-0.2
		c-0.5,0.5-1.2,0.7-2,0.7c-0.1,0-0.2,0-0.3,0c-4-0.3-9.2-7.6-10.7-10.1c-0.9-1.6-1.9-2.4-2.8-2.7C85.3,50.3,85.1,50.3,85,50.3
		L85,50.3z"/>
</g>
</svg>
