<svg xmlns="http://www.w3.org/2000/svg" width="38.824" height="21.458" viewBox="0 0 38.824 21.458">
  <g id="mountain" transform="translate(0 -79.434)" opacity="0.73">
    <path id="Path_82" data-name="Path 82" d="M37.84,91.692H32.7l-3.668-4.028a.984.984,0,0,0-1.341-.107l-2.276,1.817-6-9.482a.984.984,0,0,0-1.662,0l-5.126,8.1-1.922-2.812a.984.984,0,0,0-1.625,0L4.628,91.692H.984a.984.984,0,1,0,0,1.968h2.3L2.5,94.805a.984.984,0,1,0,1.625,1.11L4.5,95.36l5.389-7.886L11.482,89.8,7.961,95.36,5.415,99.382a.984.984,0,1,0,1.662,1.052l.468-.738,11.04-17.439,8.969,14.168.224.354a.984.984,0,0,0,1.662-1.052l-2.963-4.68L28.2,89.67l5.908,6.488.689.756a.984.984,0,1,0,1.455-1.325L34.5,93.66H37.84a.984.984,0,1,0,0-1.968Z" fill="#373737" opacity="0.83"/>
  </g>
</svg>
