<svg xmlns="http://www.w3.org/2000/svg" width="23" height="26" viewBox="0 0 23 26">
  <g id="Polygon_1" data-name="Polygon 1" transform="translate(23) rotate(90)" fill="none">
    <path d="M11.259,3.08a2,2,0,0,1,3.482,0l9.572,16.935A2,2,0,0,1,22.572,23H3.428a2,2,0,0,1-1.741-2.984Z" stroke="none"/>
    <path d="M 13 3.064569473266602 C 12.82456970214844 3.064569473266602 12.3885498046875 3.114059448242188 12.12942981719971 3.572509765625 L 2.557229995727539 20.50794982910156 C 2.302179336547852 20.95919036865234 2.47705078125 21.35480880737305 2.564069747924805 21.50395011901855 C 2.651090621948242 21.65309906005859 2.909460067749023 22 3.427799224853516 22 L 22.57220077514648 22 C 23.09053993225098 22 23.34890937805176 21.65309906005859 23.4359302520752 21.50395011901855 C 23.52294921875 21.35480880737305 23.69782066345215 20.95919036865234 23.44277000427246 20.50794982910156 L 13.87057018280029 3.572509765625 C 13.6114501953125 3.114059448242188 13.17543029785156 3.064569473266602 13 3.064569473266602 M 13 2.064567565917969 C 13.67916488647461 2.064567565917969 14.35832977294922 2.403194427490234 14.74112987518311 3.080450057983398 L 24.31332969665527 20.01588821411133 C 25.0669002532959 21.34912872314453 24.10367965698242 23 22.57220077514648 23 L 3.427799224853516 23 C 1.896320343017578 23 0.9330997467041016 21.34912872314453 1.686670303344727 20.01588821411133 L 11.25887012481689 3.080450057983398 C 11.64167022705078 2.403194427490234 12.32083511352539 2.064567565917969 13 2.064567565917969 Z" stroke="none" fill="#fff"/>
  </g>
</svg>
