<?xml version="1.0" encoding="utf-8"?>
<!-- Generator: Adobe Illustrator 25.0.1, SVG Export Plug-In . SVG Version: 6.00 Build 0)  -->
<svg version="1.1" id="Layer_1" xmlns="http://www.w3.org/2000/svg" xmlns:xlink="http://www.w3.org/1999/xlink" x="0px" y="0px"
	 viewBox="0 0 24 12" style="enable-background:new 0 0 24 12;" xml:space="preserve">
<style type="text/css">
	.st0{fill:#373737;}
</style>
<g id="right-arrow" transform="translate(0 -133)">
	<g id="Group_3" transform="translate(0 133)">
		<path id="Path_51" class="st0" d="M18.6,5.6L18.6,5.6l-2.8-2.9c-0.2-0.2-0.5-0.2-0.7,0c0,0,0,0,0,0c-0.2,0.2-0.2,0.6,0,0.8L17,5.5
			H5.7C5.4,5.5,5.2,5.7,5.2,6c0,0.3,0.2,0.5,0.5,0.5H17l-1.9,1.9c-0.2,0.2-0.2,0.6,0,0.8c0.2,0.2,0.5,0.2,0.7,0c0,0,0,0,0,0l2.8-2.9
			l0,0C18.8,6.2,18.8,5.8,18.6,5.6z"/>
	</g>
</g>
</svg>
